<?xml version="1.0" standalone="no"?>
<!DOCTYPE svg PUBLIC "-//W3C//DTD SVG 20010904//EN"
 "http://www.w3.org/TR/2001/REC-SVG-20010904/DTD/svg10.dtd">
<svg version="1.0" xmlns="http://www.w3.org/2000/svg"
 width="3035.000000pt" height="3034.000000pt" viewBox="0 0 3035.000000 3034.000000"
 preserveAspectRatio="xMidYMid meet">

<g transform="translate(0.000000,3034.000000) scale(0.100000,-0.100000)"
fill="#000000" stroke="none">
<path d="M7583 29055 c-143 -31 -255 -125 -324 -270 -76 -160 -74 -132 -71
-1113 l2 -873 -1012 2 c-1020 1 -1152 -2 -1456 -37 -1390 -159 -2435 -894
-3076 -2162 -122 -243 -178 -406 -320 -937 -42 -154 -82 -302 -91 -330 -13
-45 -15 -1045 -15 -9320 l0 -9270 81 -300 c163 -607 221 -780 349 -1036 579
-1155 1503 -1861 2765 -2109 110 -22 238 -48 285 -60 85 -20 90 -20 4673 -20
l4588 0 97 47 c124 61 204 137 255 244 78 165 76 328 -6 483 -70 132 -198 223
-360 257 -89 18 -198 19 -3692 20 -4049 1 -5112 8 -5330 33 -740 88 -1359 374
-1832 845 -440 438 -684 957 -790 1677 -16 112 -17 625 -21 9114 -2 6486 0
9030 8 9120 65 739 368 1396 871 1886 418 406 896 638 1514 733 325 50 601 68
1295 82 283 5 670 18 860 28 190 10 349 16 353 14 4 -3 6 -419 5 -926 -3
-1032 -6 -987 69 -1129 129 -245 443 -340 702 -211 72 36 167 131 208 209 70
133 67 81 71 1082 l3 902 3164 0 3164 0 3 -877 c3 -872 4 -879 26 -958 79
-285 235 -415 497 -415 264 0 420 132 497 420 22 84 22 93 28 955 l5 870 3190
0 3190 0 5 -890 6 -890 22 -75 c34 -109 78 -187 147 -256 95 -95 195 -134 350
-134 158 1 254 37 350 134 69 69 113 147 147 256 l22 75 6 895 5 895 1090 0
c1143 0 1208 -2 1465 -46 622 -106 1200 -415 1642 -878 415 -433 658 -979 745
-1666 16 -130 18 -375 23 -3490 5 -2658 8 -3359 18 -3395 42 -145 145 -276
266 -335 258 -127 571 -32 699 212 75 143 69 -121 70 3243 1 3591 -3 3846 -68
4220 -174 1002 -802 1948 -1685 2537 -519 346 -1054 543 -1690 622 -297 37
-433 41 -1517 41 l-1062 0 -3 928 -3 927 -23 65 c-47 129 -125 217 -253 285
-319 167 -679 -6 -755 -365 -14 -65 -16 -192 -18 -945 l-1 -870 -3190 0 -3190
0 -5 910 c-5 908 -5 910 -27 975 -43 125 -132 234 -241 293 -65 35 -189 67
-261 67 -191 -1 -372 -112 -455 -281 -67 -136 -66 -118 -66 -1091 l0 -878
-3165 0 -3164 0 -3 888 c-4 993 1 927 -79 1090 -105 214 -324 312 -576 257z"/>
<path d="M7581 18264 c-182 -49 -342 -214 -381 -395 -18 -80 -8 -220 19 -291
91 -236 334 -380 573 -340 225 38 408 224 440 447 51 362 -299 674 -651 579z"/>
<path d="M12521 18265 c-180 -51 -329 -202 -376 -380 -81 -313 148 -627 474
-651 265 -20 511 180 553 448 37 240 -113 486 -347 569 -79 28 -228 35 -304
14z"/>
<path d="M17461 18264 c-184 -49 -343 -216 -381 -401 -16 -77 -8 -204 18 -276
71 -197 251 -336 455 -353 269 -22 521 181 560 451 38 261 -133 511 -398 581
-65 18 -185 17 -254 -2z"/>
<path d="M22401 18264 c-223 -60 -391 -278 -391 -509 0 -252 200 -481 453
-518 306 -44 597 208 597 518 0 233 -169 451 -395 510 -73 19 -192 18 -264 -1z"/>
<path d="M22575 13749 c-1221 -90 -2528 -548 -3483 -1218 -1216 -854 -2013
-2107 -2377 -3736 -76 -339 -124 -653 -146 -952 -15 -216 -7 -797 15 -993 68
-604 202 -1143 418 -1680 628 -1561 1827 -2800 3303 -3415 363 -151 644 -231
1451 -410 l561 -125 518 0 517 0 222 41 c896 164 1490 350 2141 669 1154 565
2027 1429 2609 2580 608 1201 879 2547 750 3735 -141 1309 -736 2507 -1769
3564 -1170 1197 -2464 1838 -3917 1941 -168 11 -650 11 -813 -1z m480 -1069
c235 -12 426 -32 622 -65 1577 -267 2940 -1240 3715 -2653 660 -1202 813
-2642 421 -3956 -204 -687 -539 -1306 -1013 -1876 -134 -161 -469 -496 -630
-630 -527 -439 -1087 -753 -1710 -960 -402 -134 -768 -210 -1210 -251 -198
-19 -706 -16 -910 5 -1065 108 -1994 492 -2821 1163 -175 143 -548 512 -689
683 -702 849 -1097 1801 -1202 2895 -16 173 -16 703 0 880 101 1093 503 2062
1208 2910 135 163 470 498 633 634 895 745 1964 1167 3095 1220 238 12 273 12
491 1z"/>
<path d="M22683 10315 c-132 -36 -266 -139 -325 -251 -66 -123 -63 -50 -63
-1414 0 -951 3 -1249 13 -1295 39 -190 181 -337 363 -380 154 -35 1754 -39
1921 -4 230 48 398 263 398 510 0 238 -163 443 -403 506 -54 14 -142 16 -652
17 l-590 1 0 925 c0 748 -3 936 -14 985 -46 201 -187 350 -378 400 -71 19
-201 18 -270 0z"/>
<path d="M7581 13324 c-182 -49 -342 -214 -381 -395 -18 -80 -8 -220 20 -292
35 -92 98 -176 175 -235 81 -61 151 -90 253 -105 271 -41 544 169 584 448 51
362 -299 674 -651 579z"/>
<path d="M12521 13325 c-179 -50 -329 -202 -376 -380 -81 -313 148 -627 475
-651 264 -20 510 180 552 448 37 240 -112 484 -347 570 -78 28 -227 34 -304
13z"/>
<path d="M7581 8384 c-176 -47 -330 -202 -377 -378 -19 -69 -18 -200 2 -267
65 -217 251 -369 473 -385 327 -25 606 283 551 604 -34 202 -192 375 -391 427
-68 19 -188 18 -258 -1z"/>
<path d="M12521 8385 c-133 -37 -266 -143 -328 -261 -179 -338 45 -742 427
-770 264 -20 510 180 552 448 16 108 1 198 -51 303 -62 126 -166 219 -296 267
-78 28 -227 34 -304 13z"/>
</g>
</svg>
