<?xml version="1.0" standalone="no"?>
<!DOCTYPE svg PUBLIC "-//W3C//DTD SVG 20010904//EN"
 "http://www.w3.org/TR/2001/REC-SVG-20010904/DTD/svg10.dtd">
<svg version="1.0" xmlns="http://www.w3.org/2000/svg"
 width="2788.000000pt" height="2788.000000pt" viewBox="0 0 2788.000000 2788.000000"
 preserveAspectRatio="xMidYMid meet">

<g transform="translate(0.000000,2788.000000) scale(0.100000,-0.100000)"
fill="#000000" stroke="none">
<path d="M3250 27243 c-324 -31 -575 -89 -841 -196 -886 -356 -1535 -1119
-1764 -2075 -19 -81 -44 -181 -55 -223 -20 -75 -20 -112 -20 -2108 l0 -2031
2213 0 c1876 0 2236 -2 2372 -15 88 -8 170 -15 183 -15 l22 0 0 -3875 0 -3875
-1185 0 -1185 0 0 -2115 0 -2115 1179 0 1179 0 6 -72 c20 -263 26 -724 28
-2268 2 -954 1 -1989 -1 -2300 -4 -589 -1 -655 40 -905 86 -515 292 -983 610
-1387 105 -133 356 -382 484 -479 403 -307 820 -491 1289 -569 71 -11 137 -25
147 -30 11 -6 2702 -10 7266 -10 l7249 0 270 55 c531 110 842 198 1185 335
1757 706 3003 2291 3278 4170 35 238 51 476 58 877 l6 393 -1206 0 -1207 0 0
8274 c0 5409 -3 8318 -10 8402 -54 702 -249 1356 -575 1929 -689 1213 -1880
2001 -3325 2200 -80 12 -252 19 -560 25 -406 8 -17049 11 -17130 3z m17545
-1040 c206 -30 297 -48 460 -90 612 -156 1140 -456 1580 -897 593 -594 930
-1364 985 -2251 6 -104 10 -2929 10 -8105 -1 -6742 -3 -7982 -15 -8190 -8
-135 -14 -246 -15 -247 0 -2 -3060 -3 -6800 -3 l-6800 0 0 -1362 c0 -1354 -5
-1580 -35 -1808 -62 -452 -253 -836 -567 -1135 -136 -130 -261 -219 -428 -304
-270 -137 -542 -201 -855 -201 -325 0 -593 63 -880 205 -194 96 -310 180 -465
335 -237 236 -386 493 -475 818 -42 149 -61 276 -75 487 -6 104 -10 1033 -10
2652 l0 2493 5348 0 c3671 0 5367 3 5411 11 36 5 103 25 150 43 103 38 290
160 1974 1282 l1159 772 -1189 794 c-1162 778 -1700 1134 -1855 1229 -48 29
-108 55 -158 68 l-81 22 -5379 6 -5380 6 0 5688 c0 3748 -3 5748 -10 5865 -25
428 -89 755 -206 1046 -59 148 -122 265 -287 535 l-135 222 31 5 c18 3 167 10
332 17 165 6 302 13 304 15 3 2 3200 3 7105 1 l7101 -3 150 -21z m-17052 2
c844 -111 1455 -702 1602 -1550 29 -167 35 -437 35 -1712 l0 -1273 -1888 0
-1889 0 -7 1068 c-7 1043 -1 1503 24 1782 30 335 136 638 321 916 101 151 312
362 463 463 248 165 515 267 796 306 133 18 405 18 543 0z m13099 -14409 c148
-29 280 -88 423 -191 50 -36 371 -252 713 -480 l624 -416 -539 -361 c-1003
-672 -1031 -689 -1195 -722 -248 -51 -484 23 -674 209 -166 163 -285 398 -329
652 -20 113 -19 325 1 444 46 265 175 514 357 685 170 160 390 224 619 180z
m-10682 -1076 l0 -1070 -1070 0 -1070 0 0 1070 0 1070 1070 0 1070 0 0 -1070z
m8705 -5 l0 -1070 -3815 0 -3815 0 -3 1073 -2 1072 3817 -2 3818 -3 0 -1070z
m11350 -5377 c-61 -271 -151 -605 -204 -767 -320 -962 -894 -1712 -1734 -2264
-584 -385 -1171 -597 -1887 -684 -136 -16 -469 -18 -5620 -21 -4807 -2 -5513
-1 -5786 13 -171 8 -329 15 -352 15 -24 0 -42 5 -42 11 0 6 65 118 145 250 79
131 165 279 190 329 128 255 216 553 259 880 36 270 40 365 41 1155 2 464 7
852 13 940 7 83 12 153 12 158 0 4 3368 7 7485 7 l7485 0 -5 -22z"/>
<path d="M8610 21935 l0 -495 2900 0 2900 0 0 495 0 495 -2900 0 -2900 0 0
-495z"/>
<path d="M8610 18720 l0 -490 6510 0 6510 0 0 490 0 490 -6510 0 -6510 0 0
-490z"/>
<path d="M8610 15515 l0 -495 6510 0 6510 0 0 495 0 495 -6510 0 -6510 0 0
-495z"/>
</g>
</svg>
