<?xml version="1.0" standalone="no"?>
<!DOCTYPE svg PUBLIC "-//W3C//DTD SVG 20010904//EN"
 "http://www.w3.org/TR/2001/REC-SVG-20010904/DTD/svg10.dtd">
<svg version="1.0" xmlns="http://www.w3.org/2000/svg"
 width="512.000000pt" height="512.000000pt" viewBox="0 0 512.000000 512.000000"
 preserveAspectRatio="xMidYMid meet">

<g transform="translate(0.000000,512.000000) scale(0.100000,-0.100000)"
fill="#000000" stroke="none">
<path d="M4019 4485 c-337 -64 -607 -294 -720 -615 l-27 -75 -1498 -5 c-1437
-5 -1501 -6 -1539 -24 -107 -50 -178 -128 -214 -234 -21 -62 -21 -63 -19
-1345 l3 -1282 31 -65 c40 -83 102 -145 184 -184 l65 -31 1835 -3 c1815 -2
1836 -2 1900 18 82 25 150 75 196 144 67 101 64 61 64 996 l0 847 63 12 c198
38 364 126 508 270 361 364 355 957 -12 1318 -35 35 -86 79 -114 99 -71 52
-220 121 -311 145 -104 27 -292 34 -395 14z m309 -201 c360 -74 611 -400 589
-764 -20 -324 -242 -592 -558 -671 -69 -18 -103 -20 -208 -17 -108 4 -138 9
-208 35 -241 88 -416 280 -477 524 -23 93 -21 255 4 353 97 380 477 619 858
540z m-1075 -796 c7 -120 33 -223 85 -328 20 -41 38 -78 40 -82 2 -3 -261
-257 -585 -563 l-588 -556 -66 3 -67 3 -856 809 c-471 445 -856 811 -856 813
0 1 650 3 1444 3 l1443 0 6 -102z m-2345 -698 c381 -359 691 -657 690 -661 -7
-16 -1382 -1178 -1390 -1173 -10 7 -11 2497 0 2492 5 -1 320 -298 700 -658z
m2642 85 c48 -50 168 -131 245 -166 63 -28 173 -61 248 -74 l37 -6 0 -840 c0
-511 -4 -839 -9 -837 -11 4 -1364 1153 -1379 1171 -8 9 97 113 400 400 225
213 413 387 417 387 4 0 22 -16 41 -35z m-1693 -982 c147 -138 136 -133 280
-133 67 0 132 4 145 9 13 5 74 57 136 116 102 98 114 106 130 93 9 -8 318
-271 687 -584 l670 -569 -883 -3 c-485 -1 -1278 -1 -1763 0 l-881 3 684 582
c375 320 685 582 687 582 2 1 51 -43 108 -96z"/>
<path d="M4045 3857 c-17 -14 -28 -36 -32 -63 -4 -33 -1 -45 21 -71 15 -17 40
-34 56 -38 l30 -7 0 -214 c0 -242 3 -255 69 -275 31 -9 43 -8 70 6 56 29 61
55 61 341 0 340 -2 344 -165 344 -73 0 -87 -3 -110 -23z"/>
</g>
</svg>
