<?xml version="1.0" standalone="no"?>
<!DOCTYPE svg PUBLIC "-//W3C//DTD SVG 20010904//EN"
 "http://www.w3.org/TR/2001/REC-SVG-20010904/DTD/svg10.dtd">
<svg version="1.0" xmlns="http://www.w3.org/2000/svg"
 width="3608.000000pt" height="3528.000000pt" viewBox="0 0 3608.000000 3528.000000"
 preserveAspectRatio="xMidYMid meet">

<g transform="translate(0.000000,3528.000000) scale(0.100000,-0.100000)"
fill="#000000" stroke="none">
<path d="M3519 35278 c-19 -60 -22 -572 -28 -4058 l-6 -3885 -270 -12 c-602
-26 -829 -57 -1165 -160 -454 -138 -918 -430 -1223 -768 -404 -449 -635 -966
-724 -1615 -17 -130 -18 -468 -18 -9360 0 -8810 1 -9232 18 -9370 117 -950
541 -1632 1322 -2126 357 -227 675 -342 1115 -406 l155 -22 3793 -3 3792 -3 0
-1140 0 -1140 -1110 0 -1110 0 0 -560 0 -560 9620 0 9620 0 0 550 0 550 -1110
0 -1110 0 0 1139 0 1139 73 7 c39 4 1710 8 3712 10 3933 4 3750 1 4057 55 400
70 755 206 1063 407 421 275 778 696 1015 1195 63 133 94 224 193 558 l82 275
2 2035 3 2035 -139 -280 c-299 -600 -638 -1133 -1041 -1635 l-92 -115 40 -3
39 -3 7 -262 c3 -144 11 -442 17 -661 15 -556 -6 -1027 -57 -1281 -122 -604
-704 -1087 -1422 -1180 -104 -14 -1754 -15 -14962 -12 -14117 2 -14850 3
-14945 20 -473 83 -787 229 -1046 487 -168 167 -267 325 -338 538 -97 291
-126 787 -97 1627 9 253 16 520 16 592 l0 133 9386 2 9386 3 -84 105 c-234
292 -486 651 -670 955 l-54 90 -9007 3 -9007 2 -2 6663 c-2 3664 -3 7110 -3
7657 0 1107 -2 1076 70 1355 91 353 248 630 492 866 311 300 720 461 1237 485
116 6 340 -6 449 -23 l37 -6 0 -7918 0 -7919 7576 0 c6057 0 7575 3 7571 13
-80 180 -263 709 -333 959 l-38 138 -6821 2 -6820 3 0 9060 0 9060 13043 3
13042 2 0 -3757 1 -3758 67 -29 c232 -102 664 -331 930 -492 l152 -93 0 2354
c0 1295 2 2355 5 2355 3 0 48 7 101 15 143 23 363 34 509 24 491 -31 879 -204
1188 -529 264 -277 424 -650 466 -1084 8 -74 11 -932 11 -2651 l0 -2542 86
-111 c342 -446 649 -941 915 -1477 l139 -279 0 3644 0 3645 -45 175 c-184 709
-477 1231 -899 1600 -369 322 -754 529 -1191 640 -268 68 -465 90 -821 90
-268 0 -318 8 -378 60 -18 17 -44 54 -57 82 l-24 53 -6 3815 c-4 2098 -11
3847 -15 3885 l-9 70 -14157 3 c-7787 1 -14158 1 -14159 0z m27201 -2843 l0
-1675 -13050 0 -13050 0 0 1675 0 1675 13050 0 13050 0 0 -1675z m-6810
-30095 l0 -1110 -6230 0 -6230 0 0 1110 0 1110 6230 0 6230 0 0 -1110z"/>
<path d="M5780 32435 l0 -545 545 0 545 0 0 545 0 545 -545 0 -545 0 0 -545z"/>
<path d="M8050 32430 l0 -550 545 0 545 0 -2 548 -3 547 -542 3 -543 2 0 -550z"/>
<path d="M10330 32430 l0 -550 535 0 535 0 0 550 0 550 -535 0 -535 0 0 -550z"/>
<path d="M11130 28439 c-1032 -112 -1934 -795 -2313 -1749 -181 -455 -222
-820 -215 -1905 4 -540 6 -601 26 -722 82 -511 276 -948 595 -1343 34 -41 138
-154 232 -250 197 -203 335 -375 307 -384 -9 -3 -452 -129 -983 -280 -532
-151 -1029 -298 -1105 -326 -318 -117 -682 -324 -919 -523 -524 -441 -864
-1075 -969 -1807 -32 -223 -38 -373 -35 -805 2 -236 4 -607 4 -823 l0 -392
5666 0 5666 0 6 208 c25 803 19 1392 -19 1737 -75 690 -334 1264 -764 1695
-272 273 -580 476 -971 641 -229 96 -517 185 -1474 454 -209 59 -458 135 -552
168 l-173 61 0 54 0 53 218 217 c319 319 486 537 622 817 115 235 168 412 214
715 154 1009 124 1783 -100 2533 -91 305 -235 586 -438 857 -94 125 -314 351
-450 462 -400 328 -883 540 -1416 623 -124 20 -532 28 -660 14z m545 -1145
c368 -53 694 -213 945 -464 268 -268 398 -558 454 -1010 58 -464 54 -1061 -9
-1680 -19 -182 -29 -232 -70 -347 -64 -178 -161 -319 -333 -484 -120 -115
-234 -200 -391 -292 -181 -106 -248 -186 -270 -327 -7 -42 -7 -162 0 -374 8
-233 8 -385 -1 -607 -13 -326 -9 -366 43 -436 58 -79 114 -103 456 -198 775
-215 2039 -580 2196 -636 624 -219 1009 -570 1173 -1069 62 -186 89 -351 98
-595 6 -144 -8 -459 -22 -508 -5 -16 -227 -17 -4522 -15 l-4517 3 -7 45 c-12
75 -11 518 2 630 87 802 493 1257 1380 1548 229 75 1536 452 2105 607 154 42
303 86 330 99 100 46 148 124 149 241 0 39 -4 149 -8 245 -7 143 -6 206 9 344
22 217 17 441 -15 566 -26 105 -101 264 -164 347 -75 99 -188 197 -355 307
-275 183 -409 353 -506 645 -83 253 -96 368 -102 957 -9 804 24 1127 144 1429
128 321 343 591 618 777 342 230 746 316 1190 252z"/>
<path d="M18260 27895 l0 -545 5660 0 5660 0 0 545 0 545 -5660 0 -5660 0 0
-545z"/>
<path d="M18270 25625 l0 -555 5650 0 5650 0 0 555 0 555 -5650 0 -5650 0 0
-555z"/>
<path d="M18270 23350 l0 -550 3940 0 c3629 0 3957 1 4143 17 258 22 1072 24
1267 3 91 -9 373 -14 1038 -17 l912 -4 0 551 0 550 -5650 0 -5650 0 0 -550z"/>
<path d="M26633 22063 c-57 -2 -103 -7 -103 -12 0 -4 -93 -10 -206 -13 -118
-3 -209 -10 -213 -15 -3 -6 -53 -13 -111 -16 -61 -3 -106 -10 -108 -16 -2 -6
-30 -11 -65 -11 -94 0 -167 -11 -167 -25 0 -8 -30 -14 -92 -18 -50 -3 -94 -10
-97 -15 -3 -5 -39 -11 -79 -14 -40 -2 -76 -9 -80 -15 -4 -5 -34 -12 -66 -15
-33 -3 -62 -10 -64 -16 -2 -7 -22 -12 -45 -12 -55 0 -87 -9 -87 -25 0 -8 -21
-14 -61 -17 -33 -2 -64 -9 -67 -15 -4 -6 -33 -12 -65 -15 -33 -3 -62 -9 -65
-15 -4 -5 -27 -13 -52 -16 -24 -3 -46 -11 -48 -16 -2 -6 -22 -11 -45 -11 -55
0 -87 -9 -87 -25 0 -7 -20 -15 -50 -19 -27 -4 -50 -10 -50 -15 0 -5 -19 -11
-41 -14 -23 -3 -45 -10 -48 -15 -3 -5 -26 -12 -50 -15 -24 -3 -47 -10 -50 -15
-3 -5 -27 -12 -53 -16 -27 -4 -48 -11 -48 -17 0 -5 -13 -9 -30 -9 -23 0 -30
-5 -30 -19 0 -15 -10 -19 -47 -24 -26 -3 -49 -10 -51 -16 -2 -6 -17 -11 -33
-11 -18 0 -29 -5 -29 -14 0 -9 -16 -15 -47 -19 -26 -3 -49 -10 -51 -16 -2 -6
-17 -11 -33 -11 -22 0 -29 -5 -29 -20 0 -16 -7 -20 -34 -20 -19 0 -41 -6 -49
-14 -8 -8 -31 -18 -51 -21 -20 -4 -36 -11 -36 -15 0 -5 -13 -11 -30 -15 -16
-4 -30 -11 -30 -16 0 -5 -16 -9 -35 -9 -28 0 -35 -4 -35 -20 0 -16 -7 -20 -30
-20 -20 0 -30 -5 -30 -15 0 -10 -11 -15 -35 -15 -24 0 -35 -5 -35 -15 0 -10
-10 -15 -30 -15 -20 0 -30 -5 -30 -15 0 -10 -10 -15 -30 -15 -23 0 -30 -4 -30
-20 0 -16 -7 -20 -35 -20 -24 0 -35 -5 -35 -15 0 -10 -10 -15 -30 -15 -19 0
-30 -5 -30 -14 0 -8 -15 -17 -35 -20 -19 -4 -35 -11 -35 -15 0 -5 -11 -12 -25
-15 -14 -4 -25 -11 -25 -16 0 -6 -11 -10 -25 -10 -18 0 -25 -5 -25 -20 0 -16
-7 -20 -30 -20 -20 0 -30 -5 -30 -15 0 -8 -14 -17 -35 -21 -19 -3 -35 -10 -35
-14 0 -4 -11 -11 -25 -14 -14 -4 -25 -11 -25 -16 0 -6 -9 -10 -20 -10 -13 0
-20 -7 -20 -19 0 -13 -9 -21 -30 -26 -16 -4 -30 -11 -30 -16 0 -5 -9 -9 -20
-9 -11 0 -20 -6 -20 -14 0 -8 -13 -17 -30 -21 -16 -4 -30 -11 -30 -16 0 -5 -9
-9 -20 -9 -13 0 -20 -7 -20 -20 0 -16 -7 -20 -30 -20 -19 0 -30 -5 -30 -14 0
-8 -13 -17 -30 -21 -16 -4 -30 -11 -30 -16 0 -5 -9 -9 -20 -9 -11 0 -20 -7
-20 -15 0 -8 -7 -15 -15 -15 -8 0 -15 -9 -15 -19 0 -13 -9 -21 -30 -26 -16 -4
-30 -11 -30 -16 0 -5 -9 -9 -20 -9 -11 0 -20 -6 -20 -14 0 -8 -11 -17 -25 -20
-14 -4 -25 -11 -25 -16 0 -6 -9 -10 -20 -10 -11 0 -20 -7 -20 -15 0 -8 -9 -15
-20 -15 -13 0 -20 -7 -20 -19 0 -12 -9 -21 -25 -25 -14 -4 -25 -11 -25 -16 0
-6 -9 -10 -20 -10 -11 0 -20 -7 -20 -15 0 -8 -9 -15 -20 -15 -11 0 -20 -6 -20
-14 0 -8 -11 -17 -25 -20 -14 -4 -25 -13 -25 -21 0 -8 -9 -15 -20 -15 -11 0
-20 -7 -20 -15 0 -8 -9 -15 -20 -15 -11 0 -20 -7 -20 -15 0 -8 -7 -15 -15 -15
-8 0 -15 -6 -15 -14 0 -8 -11 -17 -25 -20 -14 -4 -25 -13 -25 -21 0 -9 -10
-15 -25 -15 -16 0 -25 -6 -25 -15 0 -8 -7 -15 -15 -15 -8 0 -15 -7 -15 -15 0
-8 -7 -15 -15 -15 -8 0 -15 -7 -15 -15 0 -8 -7 -15 -15 -15 -8 0 -15 -9 -15
-20 0 -11 -7 -20 -15 -20 -8 0 -15 -7 -15 -15 0 -8 -9 -15 -19 -15 -11 0 -33
-13 -49 -30 -17 -16 -38 -30 -46 -30 -9 0 -16 -7 -16 -15 0 -8 -9 -15 -20 -15
-13 0 -20 -7 -20 -20 0 -11 -7 -20 -15 -20 -8 0 -15 -7 -15 -15 0 -8 -7 -15
-15 -15 -8 0 -15 -7 -15 -15 0 -8 -7 -15 -15 -15 -8 0 -15 -7 -15 -15 0 -8 -9
-15 -20 -15 -13 0 -20 -7 -20 -20 0 -11 -7 -20 -15 -20 -8 0 -15 -7 -15 -15 0
-8 -7 -15 -15 -15 -8 0 -15 -7 -15 -15 0 -8 -7 -15 -15 -15 -8 0 -15 -7 -15
-15 0 -8 -9 -15 -20 -15 -13 0 -20 -7 -20 -20 0 -11 -7 -20 -15 -20 -8 0 -15
-7 -15 -15 0 -8 -7 -15 -15 -15 -8 0 -15 -7 -15 -15 0 -8 -7 -15 -15 -15 -8 0
-15 -7 -15 -15 0 -8 -7 -15 -15 -15 -8 0 -15 -9 -15 -20 0 -13 -7 -20 -20 -20
-11 0 -20 -7 -20 -15 0 -8 -7 -15 -15 -15 -8 0 -15 -7 -15 -15 0 -8 -7 -15
-15 -15 -8 0 -15 -7 -15 -15 0 -8 -7 -15 -15 -15 -8 0 -15 -7 -15 -15 0 -8 -9
-15 -20 -15 -14 0 -20 -7 -20 -21 0 -11 -13 -34 -30 -51 -16 -16 -30 -36 -30
-44 0 -8 -7 -14 -15 -14 -8 0 -15 -9 -15 -20 0 -13 -7 -20 -20 -20 -11 0 -20
-7 -20 -15 0 -8 -7 -15 -15 -15 -8 0 -15 -7 -15 -15 0 -8 -7 -15 -15 -15 -8 0
-15 -7 -15 -15 0 -8 -7 -15 -15 -15 -9 0 -15 -9 -15 -25 0 -15 -6 -25 -15 -25
-8 0 -17 -11 -21 -25 -3 -14 -12 -25 -20 -25 -8 0 -14 -7 -14 -15 0 -8 -7 -15
-15 -15 -8 0 -15 -9 -15 -20 0 -11 -7 -20 -15 -20 -8 0 -15 -9 -15 -20 0 -11
-4 -20 -10 -20 -5 0 -12 -11 -16 -25 -4 -16 -13 -25 -25 -25 -10 0 -19 -7 -19
-15 0 -8 -7 -15 -15 -15 -9 0 -15 -9 -15 -25 0 -14 -4 -25 -10 -25 -5 0 -12
-11 -16 -25 -3 -14 -12 -25 -20 -25 -8 0 -14 -7 -14 -15 0 -8 -9 -15 -20 -15
-15 0 -20 -7 -20 -25 0 -14 -4 -25 -10 -25 -5 0 -12 -11 -16 -25 -3 -14 -12
-25 -20 -25 -8 0 -14 -9 -14 -20 0 -11 -4 -20 -9 -20 -5 0 -12 -13 -16 -30 -5
-21 -13 -30 -26 -30 -10 0 -19 -7 -19 -15 0 -8 -7 -15 -15 -15 -8 0 -15 -9
-15 -20 0 -11 -4 -20 -9 -20 -5 0 -12 -13 -16 -30 -4 -16 -13 -30 -21 -30 -9
0 -14 -11 -14 -30 0 -20 -5 -30 -15 -30 -8 0 -15 -7 -15 -15 0 -8 -6 -15 -14
-15 -8 0 -17 -15 -20 -35 -4 -21 -13 -35 -21 -35 -8 0 -15 -7 -15 -16 0 -8 -7
-22 -15 -30 -8 -9 -15 -24 -15 -35 0 -10 -7 -19 -15 -19 -8 0 -15 -9 -15 -20
0 -11 -7 -20 -15 -20 -8 0 -17 -11 -21 -25 -3 -14 -10 -25 -14 -25 -4 0 -11
-16 -14 -35 -4 -21 -13 -35 -21 -35 -10 0 -15 -10 -15 -30 0 -20 -5 -30 -15
-30 -8 0 -15 -9 -15 -20 0 -11 -6 -20 -14 -20 -8 0 -17 -13 -21 -30 -4 -16
-10 -30 -15 -30 -5 0 -11 -13 -15 -30 -4 -16 -13 -30 -21 -30 -9 0 -14 -11
-14 -35 0 -24 -5 -35 -15 -35 -10 0 -15 -10 -15 -30 0 -23 -4 -30 -20 -30 -16
0 -20 -7 -20 -35 0 -24 -5 -35 -15 -35 -10 0 -15 -10 -15 -30 0 -20 -5 -30
-15 -30 -10 0 -15 -11 -15 -35 0 -24 -5 -35 -15 -35 -10 0 -15 -10 -15 -30 0
-20 -5 -30 -15 -30 -10 0 -15 -11 -15 -35 0 -24 -5 -35 -14 -35 -8 0 -17 -13
-21 -30 -4 -16 -11 -30 -15 -30 -5 0 -12 -17 -16 -37 -4 -21 -13 -44 -21 -51
-7 -7 -13 -27 -13 -43 0 -19 -5 -29 -15 -29 -10 0 -15 -11 -15 -35 0 -23 -5
-35 -14 -35 -15 0 -26 -30 -26 -72 0 -18 -5 -28 -15 -28 -10 0 -15 -10 -15
-29 0 -16 -5 -31 -11 -33 -6 -2 -13 -25 -16 -51 -4 -31 -10 -47 -19 -47 -9 0
-14 -11 -14 -30 0 -19 -5 -30 -14 -30 -15 0 -26 -30 -26 -72 0 -14 -5 -28 -11
-30 -5 -2 -13 -24 -16 -48 -3 -25 -10 -48 -15 -51 -5 -3 -12 -25 -15 -48 -3
-22 -9 -41 -14 -41 -5 0 -11 -22 -15 -50 -4 -30 -12 -50 -19 -50 -16 0 -25
-32 -25 -87 0 -23 -5 -43 -11 -45 -5 -2 -13 -24 -16 -48 -3 -25 -11 -48 -16
-52 -6 -3 -12 -32 -15 -65 -3 -32 -9 -61 -15 -65 -6 -3 -12 -32 -15 -65 -3
-32 -9 -61 -15 -65 -6 -3 -12 -31 -15 -62 -3 -36 -9 -56 -17 -56 -14 0 -25
-43 -25 -95 0 -19 -5 -35 -11 -37 -7 -2 -14 -37 -17 -83 -2 -44 -9 -83 -14
-86 -5 -3 -11 -46 -15 -95 -3 -49 -10 -92 -16 -95 -5 -4 -12 -57 -15 -118 -3
-78 -8 -111 -17 -111 -14 0 -25 -66 -25 -156 0 -37 -5 -64 -11 -66 -8 -3 -13
-71 -17 -208 -3 -134 -9 -207 -16 -212 -16 -10 -16 -956 0 -966 8 -5 13 -77
16 -211 3 -142 9 -206 16 -209 8 -2 12 -29 12 -71 0 -94 10 -161 25 -161 8 0
14 -34 18 -112 3 -61 10 -114 15 -117 5 -3 12 -46 15 -95 4 -49 10 -92 15 -95
5 -3 11 -39 14 -80 2 -46 8 -76 16 -79 7 -2 12 -22 12 -45 0 -55 9 -87 25 -87
8 0 14 -21 17 -61 2 -33 9 -64 15 -67 6 -4 12 -33 15 -65 3 -33 9 -62 15 -65
6 -4 12 -33 15 -65 3 -33 9 -62 15 -65 5 -4 13 -27 16 -52 3 -24 11 -46 16
-48 6 -2 11 -18 11 -37 0 -51 11 -95 25 -95 7 0 15 -18 18 -41 3 -23 10 -45
15 -48 5 -3 12 -26 15 -50 3 -24 10 -47 15 -50 5 -3 12 -26 15 -50 3 -24 10
-47 15 -50 5 -3 12 -27 16 -53 5 -32 12 -48 22 -48 9 0 14 -11 14 -30 0 -19 5
-30 14 -30 9 0 16 -18 20 -50 4 -27 11 -50 16 -50 6 0 10 -13 10 -30 0 -20 5
-30 15 -30 10 0 15 -10 15 -27 0 -43 11 -73 26 -73 9 0 14 -11 14 -30 0 -20 5
-30 15 -30 10 0 15 -10 15 -34 0 -19 6 -41 14 -49 8 -8 18 -31 21 -51 4 -20
11 -36 15 -36 5 0 11 -14 15 -30 4 -17 13 -30 21 -30 9 0 14 -11 14 -30 0 -20
5 -30 15 -30 10 0 15 -11 15 -35 0 -24 5 -35 15 -35 10 0 15 -10 15 -30 0 -20
5 -30 15 -30 10 0 15 -11 15 -35 0 -24 5 -35 15 -35 10 0 15 -10 15 -30 0 -23
4 -30 20 -30 16 0 20 -7 20 -35 0 -24 5 -35 15 -35 10 0 15 -10 15 -30 0 -19
5 -30 14 -30 8 0 17 -15 20 -35 4 -19 11 -35 15 -35 5 0 12 -11 15 -25 4 -14
13 -25 21 -25 8 0 15 -9 15 -20 0 -11 7 -20 15 -20 10 0 15 -11 15 -35 0 -24
5 -35 14 -35 8 0 17 -14 21 -30 4 -17 10 -30 15 -30 4 0 10 -13 14 -30 3 -18
12 -30 21 -30 8 0 15 -9 15 -20 0 -11 6 -20 14 -20 8 0 17 -14 21 -30 4 -17
11 -30 16 -30 5 0 9 -9 9 -20 0 -11 6 -20 14 -20 8 0 17 -13 21 -30 4 -17 13
-30 21 -30 8 0 14 -9 14 -20 0 -11 7 -20 15 -20 10 0 15 -10 15 -30 0 -19 5
-30 14 -30 8 0 17 -11 20 -25 4 -14 11 -25 16 -25 6 0 10 -11 10 -25 0 -16 6
-25 15 -25 8 0 15 -7 15 -15 0 -8 9 -15 19 -15 12 0 21 -9 25 -25 4 -14 11
-25 16 -25 6 0 10 -11 10 -25 0 -15 6 -25 14 -25 8 0 17 -11 20 -25 4 -14 11
-25 16 -25 6 0 10 -9 10 -20 0 -13 7 -20 20 -20 13 0 20 -7 20 -20 0 -11 6
-20 14 -20 8 0 17 -11 20 -25 4 -14 11 -25 16 -25 6 0 10 -9 10 -20 0 -11 7
-20 15 -20 8 0 15 -9 15 -20 0 -13 7 -20 19 -20 12 0 21 -9 25 -25 4 -14 11
-25 16 -25 6 0 10 -9 10 -20 0 -11 7 -20 15 -20 8 0 15 -7 15 -15 0 -8 7 -15
15 -15 8 0 15 -9 15 -20 0 -11 6 -20 14 -20 8 0 17 -11 20 -25 4 -14 13 -25
21 -25 8 0 15 -9 15 -20 0 -11 7 -20 15 -20 8 0 15 -9 15 -20 0 -11 7 -20 15
-20 8 0 15 -7 15 -15 0 -8 7 -15 15 -15 8 0 15 -7 15 -15 0 -8 9 -15 20 -15
11 0 20 -7 20 -15 0 -8 7 -15 15 -15 8 0 15 -9 15 -19 0 -11 14 -33 30 -49 17
-17 30 -38 30 -46 0 -9 8 -16 20 -16 11 0 20 -7 20 -15 0 -8 7 -15 15 -15 8 0
15 -9 15 -20 0 -11 7 -20 15 -20 8 0 15 -7 15 -15 0 -8 7 -15 15 -15 8 0 15
-7 15 -15 0 -8 9 -15 20 -15 11 0 20 -7 20 -15 0 -8 7 -15 15 -15 8 0 15 -9
15 -20 0 -11 7 -20 15 -20 8 0 15 -7 15 -15 0 -8 7 -15 15 -15 8 0 15 -7 15
-15 0 -8 7 -15 15 -15 8 0 15 -7 15 -15 0 -8 9 -15 20 -15 13 0 20 -7 20 -20
0 -11 7 -20 15 -20 8 0 15 -7 15 -15 0 -8 7 -15 15 -15 8 0 15 -7 15 -15 0 -8
7 -15 15 -15 8 0 15 -7 15 -15 0 -8 9 -15 20 -15 13 0 20 -7 20 -20 0 -11 7
-20 15 -20 8 0 15 -7 15 -15 0 -8 7 -15 15 -15 8 0 15 -7 15 -15 0 -8 7 -15
15 -15 8 0 15 -7 15 -15 0 -8 9 -15 20 -15 11 0 20 -7 20 -15 0 -8 9 -15 20
-15 11 0 20 -5 20 -10 0 -17 51 -60 71 -60 11 0 19 -7 19 -15 0 -8 7 -15 15
-15 8 0 15 -7 15 -15 0 -8 7 -15 15 -15 8 0 15 -9 15 -20 0 -11 7 -20 15 -20
8 0 15 -7 15 -15 0 -8 7 -15 15 -15 8 0 15 -7 15 -15 0 -9 9 -15 25 -15 14 0
25 -4 25 -10 0 -5 11 -12 25 -16 16 -4 25 -13 25 -25 0 -10 7 -19 15 -19 8 0
15 -7 15 -15 0 -8 9 -15 20 -15 11 0 20 -7 20 -15 0 -8 9 -15 20 -15 11 0 20
-4 20 -10 0 -5 11 -12 25 -16 16 -4 25 -13 25 -25 0 -12 7 -19 20 -19 11 0 20
-7 20 -15 0 -8 9 -15 20 -15 11 0 20 -4 20 -10 0 -5 11 -12 25 -16 14 -3 25
-12 25 -20 0 -8 9 -14 20 -14 11 0 20 -7 20 -15 0 -8 9 -15 20 -15 11 0 20 -7
20 -15 0 -8 11 -17 25 -21 14 -3 25 -12 25 -20 0 -8 9 -14 20 -14 11 0 20 -4
20 -9 0 -5 14 -12 30 -16 17 -4 30 -13 30 -21 0 -8 7 -14 15 -14 8 0 15 -9 15
-20 0 -13 7 -20 20 -20 11 0 20 -4 20 -9 0 -5 14 -12 30 -16 17 -4 30 -13 30
-21 0 -9 11 -14 30 -14 20 0 30 -5 30 -15 0 -8 9 -15 20 -15 11 0 20 -6 20
-14 0 -8 14 -17 30 -21 17 -4 30 -13 30 -21 0 -8 9 -14 20 -14 11 0 20 -4 20
-9 0 -5 14 -12 30 -16 17 -4 30 -13 30 -21 0 -8 9 -14 20 -14 11 0 20 -7 20
-15 0 -8 11 -17 25 -21 14 -3 25 -10 25 -14 0 -4 16 -11 35 -14 21 -4 35 -13
35 -21 0 -10 10 -15 30 -15 20 0 30 -5 30 -15 0 -9 9 -15 25 -15 14 0 25 -4
25 -10 0 -5 11 -12 25 -16 14 -3 25 -12 25 -20 0 -7 16 -16 35 -20 20 -3 35
-12 35 -20 0 -9 11 -14 30 -14 20 0 30 -5 30 -15 0 -10 11 -15 35 -15 24 0 35
-5 35 -15 0 -10 10 -15 30 -15 23 0 30 -4 30 -20 0 -16 7 -20 30 -20 20 0 30
-5 30 -15 0 -10 11 -15 35 -15 24 0 35 -5 35 -15 0 -10 10 -15 30 -15 20 0 30
-5 30 -15 0 -10 11 -15 35 -15 24 0 35 -5 35 -14 0 -8 14 -17 30 -21 17 -4 30
-10 30 -15 0 -4 16 -11 36 -15 20 -3 43 -13 51 -21 8 -8 30 -14 49 -14 24 0
34 -5 34 -15 0 -10 10 -15 30 -15 19 0 30 -5 30 -14 0 -15 30 -26 73 -26 17 0
27 -5 27 -15 0 -10 10 -15 29 -15 16 0 31 -5 33 -11 2 -6 25 -13 51 -16 31 -4
47 -10 47 -19 0 -9 11 -14 30 -14 17 0 30 -4 30 -10 0 -5 23 -12 50 -16 30 -4
50 -12 50 -19 0 -14 31 -25 72 -25 14 0 28 -5 30 -11 2 -5 22 -13 46 -16 23
-3 42 -9 42 -14 0 -4 21 -11 48 -15 26 -4 50 -11 54 -17 3 -6 34 -13 67 -15
40 -3 61 -9 61 -17 0 -14 31 -25 72 -25 14 0 28 -5 30 -12 2 -6 31 -13 64 -16
32 -3 62 -9 66 -15 3 -6 32 -12 65 -15 32 -3 61 -9 65 -15 3 -6 34 -13 67 -15
40 -3 61 -9 61 -17 0 -16 32 -25 87 -25 23 0 43 -5 45 -12 3 -8 33 -14 79 -16
41 -3 77 -9 80 -14 3 -5 46 -11 95 -15 49 -3 92 -10 95 -15 3 -5 56 -12 117
-15 78 -4 112 -10 112 -18 0 -14 66 -25 156 -25 37 0 64 -5 66 -11 3 -8 71
-13 208 -17 134 -3 207 -9 212 -16 10 -16 966 -16 976 0 5 7 78 13 212 16 137
4 205 9 208 17 2 6 29 11 66 11 90 0 156 11 156 25 0 8 34 14 112 18 61 3 114
10 117 15 3 5 46 12 95 15 49 4 92 10 95 15 3 5 39 11 80 14 46 2 76 8 79 16
2 7 22 12 45 12 55 0 87 9 87 25 0 8 21 14 61 17 33 2 64 9 67 15 4 6 33 12
65 15 33 3 62 9 65 15 4 6 34 12 66 15 33 3 62 10 64 16 2 7 16 12 30 12 41 0
72 11 72 25 0 8 21 14 61 17 33 2 64 9 67 15 4 6 28 13 55 17 26 4 47 11 47
15 0 5 19 11 42 14 24 3 44 11 46 16 2 6 16 11 30 11 41 0 72 11 72 25 0 7 20
15 50 19 28 4 50 11 50 16 0 6 14 10 30 10 19 0 30 5 30 14 0 9 16 15 47 19
26 3 49 10 51 16 2 6 17 11 33 11 19 0 29 5 29 15 0 10 10 15 28 15 42 0 72
11 72 26 0 9 12 14 35 14 24 0 35 5 35 15 0 10 10 15 29 15 16 0 36 6 44 14 8
8 31 18 51 21 20 4 36 11 36 15 0 5 14 11 30 15 17 4 30 13 30 21 0 9 11 14
35 14 24 0 35 5 35 15 0 10 10 15 30 15 20 0 30 5 30 15 0 10 11 15 35 15 24
0 35 5 35 15 0 10 10 15 30 15 23 0 30 4 30 20 0 16 7 20 30 20 20 0 30 5 30
15 0 10 11 15 35 15 24 0 35 5 35 15 0 10 10 15 30 15 19 0 30 5 30 14 0 8 15
17 35 20 19 4 35 13 35 20 0 8 11 17 25 20 14 4 25 11 25 16 0 6 11 10 25 10
16 0 25 6 25 15 0 10 10 15 30 15 20 0 30 5 30 15 0 8 14 17 35 21 19 3 35 10
35 14 0 4 11 11 25 14 14 4 25 13 25 21 0 8 9 15 20 15 11 0 20 6 20 14 0 8
14 17 30 21 17 4 30 11 30 16 0 5 9 9 20 9 11 0 20 6 20 14 0 8 14 17 30 21
17 4 30 13 30 21 0 8 9 14 20 14 11 0 20 7 20 15 0 10 10 15 30 15 19 0 30 5
30 14 0 8 14 17 30 21 17 4 30 11 30 16 0 5 9 9 20 9 13 0 20 7 20 20 0 11 7
20 15 20 8 0 15 6 15 14 0 8 14 17 30 21 17 4 30 11 30 16 0 5 9 9 20 9 11 0
20 6 20 14 0 8 11 17 25 20 14 4 25 13 25 21 0 8 9 15 20 15 11 0 20 7 20 15
0 8 9 15 20 15 11 0 20 6 20 14 0 8 11 17 25 20 14 4 25 11 25 16 0 6 9 10 20
10 11 0 20 7 20 15 0 8 9 15 20 15 13 0 20 7 20 19 0 12 9 21 25 25 14 4 25
11 25 16 0 6 9 10 20 10 11 0 20 7 20 15 0 8 9 15 20 15 11 0 20 7 20 15 0 8
7 15 15 15 8 0 15 9 15 19 0 12 9 21 25 25 14 4 25 11 25 16 0 6 11 10 25 10
16 0 25 6 25 15 0 8 7 15 15 15 8 0 15 7 15 15 0 8 7 15 15 15 8 0 15 9 15 20
0 11 7 20 15 20 8 0 15 7 15 15 0 8 7 15 15 15 8 0 15 7 15 15 0 8 8 15 19 15
20 0 71 43 71 60 0 5 9 10 20 10 11 0 20 7 20 15 0 8 9 15 20 15 11 0 20 7 20
15 0 8 7 15 15 15 8 0 15 7 15 15 0 8 7 15 15 15 8 0 15 7 15 15 0 8 7 15 15
15 8 0 15 9 15 20 0 13 7 20 20 20 11 0 20 7 20 15 0 8 7 15 15 15 8 0 15 7
15 15 0 8 7 15 15 15 8 0 15 7 15 15 0 8 7 15 15 15 8 0 15 9 15 20 0 13 7 20
20 20 11 0 20 7 20 15 0 8 7 15 15 15 8 0 15 7 15 15 0 8 7 15 15 15 8 0 15 7
15 15 0 8 7 15 15 15 8 0 15 9 15 20 0 11 7 20 15 20 8 0 15 7 15 15 0 8 9 15
20 15 11 0 20 7 20 15 0 8 7 15 15 15 8 0 15 7 15 15 0 8 7 15 15 15 8 0 15 9
15 20 0 11 7 20 15 20 8 0 15 7 15 15 0 8 9 15 20 15 12 0 20 7 20 16 0 8 14
29 30 46 17 16 30 38 30 49 0 10 7 19 15 19 8 0 15 7 15 15 0 8 9 15 20 15 11
0 20 7 20 15 0 8 7 15 15 15 8 0 15 7 15 15 0 8 7 15 15 15 8 0 15 9 15 20 0
11 7 20 15 20 8 0 15 9 15 20 0 11 7 20 15 20 8 0 17 11 21 25 3 14 12 25 20
25 8 0 14 9 14 20 0 11 7 20 15 20 8 0 15 7 15 15 0 8 7 15 15 15 8 0 15 9 15
20 0 11 4 20 10 20 5 0 12 11 16 25 4 16 13 25 25 25 12 0 19 7 19 20 0 11 7
20 15 20 8 0 15 9 15 20 0 11 4 20 10 20 5 0 12 11 16 25 3 14 12 25 20 25 8
0 14 9 14 20 0 13 7 20 20 20 13 0 20 7 20 20 0 11 4 20 10 20 5 0 12 11 16
25 3 14 12 25 20 25 8 0 14 10 14 25 0 14 4 25 10 25 5 0 12 11 16 25 4 16 13
25 25 25 10 0 19 7 19 15 0 8 7 15 15 15 9 0 15 9 15 25 0 14 4 25 10 25 5 0
12 11 16 25 3 14 12 25 20 25 9 0 14 11 14 30 0 23 4 30 20 30 13 0 20 7 20
20 0 11 4 20 9 20 5 0 12 13 16 30 4 16 13 30 21 30 8 0 14 9 14 20 0 11 4 20
9 20 5 0 12 13 16 30 4 16 13 30 21 30 8 0 14 9 14 20 0 11 7 20 15 20 9 0 18
12 22 30 3 17 9 30 13 30 5 0 11 13 15 30 4 16 13 30 21 30 9 0 14 11 14 35 0
24 5 35 15 35 8 0 15 9 15 20 0 11 7 20 15 20 8 0 17 11 21 25 3 14 10 25 15
25 4 0 11 16 15 35 3 20 12 35 20 35 9 0 14 11 14 30 0 20 5 30 15 30 10 0 15
11 15 35 0 28 4 35 20 35 16 0 20 7 20 30 0 20 5 30 15 30 10 0 15 11 15 35 0
24 5 35 15 35 10 0 15 10 15 30 0 20 5 30 15 30 10 0 15 11 15 35 0 28 4 35
20 35 16 0 20 7 20 30 0 17 4 30 9 30 5 0 12 13 16 30 4 16 10 30 15 30 4 0
11 16 15 36 3 20 13 43 21 51 8 8 14 30 14 49 0 24 5 34 15 34 10 0 15 10 15
30 0 19 5 30 14 30 15 0 26 30 26 73 0 17 5 27 15 27 10 0 15 10 15 30 0 17 4
30 10 30 5 0 12 23 16 50 4 32 11 50 20 50 9 0 14 11 14 30 0 19 5 30 14 30
10 0 17 16 22 48 4 26 11 50 16 53 5 3 12 26 15 50 3 24 10 47 15 50 5 3 12
26 15 50 3 24 10 47 15 50 5 3 12 25 15 48 3 23 11 41 18 41 14 0 25 44 25 95
0 19 5 35 11 37 5 2 13 24 16 48 3 25 11 48 16 52 6 3 12 32 15 65 3 32 9 61
15 65 6 3 13 34 15 67 3 40 9 61 17 61 16 0 25 32 25 87 0 23 5 43 12 45 6 2
13 31 16 64 3 32 10 62 15 66 6 4 13 40 15 80 3 40 9 76 14 79 5 3 11 46 15
95 3 49 10 92 15 95 5 3 12 56 15 117 4 78 10 112 18 112 15 0 25 67 25 161 0
42 4 69 12 71 7 3 13 67 16 209 3 134 8 206 16 211 16 10 16 956 0 966 -7 5
-13 78 -16 212 -4 137 -9 205 -17 208 -6 2 -11 29 -11 66 0 90 -11 156 -25
156 -9 0 -14 33 -17 111 -3 61 -10 114 -15 118 -6 3 -13 46 -16 95 -4 49 -10
92 -15 95 -5 3 -11 41 -14 85 -3 43 -10 81 -15 85 -6 3 -13 33 -16 66 -3 33
-11 61 -17 63 -5 2 -10 20 -10 40 0 51 -10 82 -25 82 -8 0 -14 21 -17 61 -2
33 -9 64 -15 67 -6 4 -12 33 -15 65 -3 33 -9 62 -15 65 -5 4 -13 27 -16 52 -3
24 -11 46 -16 48 -6 2 -11 22 -11 45 0 55 -9 87 -25 87 -7 0 -15 20 -19 50 -4
28 -10 50 -15 50 -5 0 -11 19 -14 41 -3 23 -10 45 -15 48 -5 3 -12 26 -15 51
-3 24 -11 46 -16 48 -6 2 -11 16 -11 30 0 42 -11 72 -26 72 -9 0 -14 11 -14
30 0 19 -5 30 -14 30 -9 0 -15 16 -19 47 -3 26 -10 49 -16 51 -6 2 -11 17 -11
33 0 19 -5 29 -15 29 -10 0 -15 10 -15 28 0 42 -11 72 -26 72 -9 0 -14 12 -14
35 0 24 -5 35 -15 35 -10 0 -15 10 -15 29 0 16 -6 36 -13 43 -8 7 -17 30 -21
51 -4 20 -11 37 -16 37 -4 0 -11 14 -15 30 -4 17 -11 30 -16 30 -5 0 -9 16 -9
35 0 28 -4 35 -20 35 -16 0 -20 7 -20 30 0 20 -5 30 -15 30 -10 0 -15 11 -15
35 0 24 -5 35 -15 35 -10 0 -15 10 -15 30 0 20 -5 30 -15 30 -10 0 -15 11 -15
35 0 28 -4 35 -20 35 -16 0 -20 7 -20 30 0 20 -5 30 -15 30 -10 0 -15 11 -15
35 0 24 -5 35 -14 35 -8 0 -17 14 -21 30 -4 17 -10 30 -15 30 -5 0 -11 14 -15
30 -4 17 -13 30 -21 30 -8 0 -14 9 -14 20 0 11 -7 20 -15 20 -10 0 -15 10 -15
30 0 20 -5 30 -15 30 -8 0 -17 14 -21 35 -3 19 -10 35 -14 35 -4 0 -11 11 -14
25 -4 14 -13 25 -21 25 -8 0 -15 9 -15 20 0 11 -7 20 -15 20 -8 0 -15 9 -15
19 0 11 -7 26 -15 35 -8 8 -15 22 -15 30 0 9 -7 16 -15 16 -8 0 -17 14 -21 35
-3 19 -10 35 -15 35 -5 0 -9 7 -9 15 0 8 -9 15 -20 15 -16 0 -20 7 -20 30 0
19 -5 30 -14 30 -8 0 -17 14 -21 30 -4 17 -11 30 -16 30 -5 0 -9 9 -9 20 0 11
-7 20 -15 20 -8 0 -15 7 -15 15 0 8 -9 15 -19 15 -13 0 -21 9 -26 30 -4 17
-11 30 -16 30 -5 0 -9 9 -9 20 0 11 -6 20 -14 20 -8 0 -17 11 -20 25 -4 14
-11 25 -16 25 -6 0 -10 11 -10 25 0 18 -5 25 -20 25 -11 0 -20 7 -20 15 0 8
-6 15 -14 15 -8 0 -17 11 -20 25 -4 14 -11 25 -16 25 -6 0 -10 11 -10 25 0 16
-6 25 -15 25 -8 0 -15 7 -15 15 0 8 -9 15 -19 15 -12 0 -21 9 -25 25 -4 14
-11 25 -16 25 -6 0 -10 9 -10 20 0 11 -7 20 -15 20 -8 0 -15 9 -15 20 0 11 -7
20 -15 20 -8 0 -15 7 -15 15 0 8 -6 15 -14 15 -8 0 -17 11 -20 25 -4 14 -13
25 -21 25 -9 0 -15 10 -15 25 0 16 -6 25 -15 25 -8 0 -15 7 -15 15 0 8 -7 15
-15 15 -8 0 -15 7 -15 15 0 8 -7 15 -15 15 -8 0 -15 7 -15 15 0 8 -9 15 -20
15 -13 0 -20 7 -20 20 0 11 -7 20 -15 20 -8 0 -15 6 -15 14 0 8 -13 28 -30 44
-16 17 -30 40 -30 51 0 14 -6 21 -20 21 -11 0 -20 7 -20 15 0 8 -7 15 -15 15
-8 0 -15 7 -15 15 0 8 -7 15 -15 15 -8 0 -15 7 -15 15 0 8 -7 15 -15 15 -8 0
-15 7 -15 15 0 8 -9 15 -20 15 -13 0 -20 7 -20 20 0 11 -7 20 -15 20 -8 0 -15
7 -15 15 0 8 -7 15 -15 15 -8 0 -15 7 -15 15 0 8 -7 15 -15 15 -8 0 -15 7 -15
15 0 8 -7 15 -15 15 -8 0 -15 9 -15 20 0 13 -7 20 -20 20 -11 0 -20 7 -20 15
0 8 -7 15 -15 15 -8 0 -15 7 -15 15 0 8 -7 15 -15 15 -8 0 -15 7 -15 15 0 8
-7 15 -15 15 -8 0 -15 9 -15 20 0 13 -7 20 -20 20 -11 0 -20 7 -20 15 0 8 -7
15 -15 15 -8 0 -15 7 -15 15 0 8 -7 15 -15 15 -8 0 -15 7 -15 15 0 8 -7 15
-15 15 -8 0 -15 9 -15 20 0 13 -7 20 -20 20 -11 0 -20 7 -20 15 0 8 -7 15 -16
15 -8 0 -29 14 -46 30 -16 17 -38 30 -49 30 -10 0 -19 7 -19 15 0 8 -7 15 -15
15 -8 0 -15 9 -15 20 0 11 -7 20 -15 20 -8 0 -15 7 -15 15 0 8 -7 15 -15 15
-8 0 -15 7 -15 15 0 8 -7 15 -15 15 -8 0 -15 7 -15 15 0 9 -9 15 -25 15 -15 0
-25 6 -25 15 0 8 -11 17 -25 21 -14 3 -25 12 -25 20 0 8 -7 14 -15 14 -8 0
-15 7 -15 15 0 8 -9 15 -20 15 -11 0 -20 7 -20 15 0 8 -9 15 -20 15 -11 0 -20
7 -20 15 0 8 -11 17 -25 21 -14 3 -25 12 -25 20 0 8 -9 14 -20 14 -11 0 -20 7
-20 15 0 8 -9 15 -20 15 -11 0 -20 4 -20 10 0 5 -11 12 -25 16 -16 4 -25 13
-25 25 0 12 -7 19 -20 19 -11 0 -20 7 -20 15 0 8 -9 15 -20 15 -11 0 -20 4
-20 10 0 5 -11 12 -25 16 -14 3 -25 12 -25 20 0 8 -9 14 -20 14 -11 0 -20 4
-20 9 0 5 -13 12 -30 16 -21 5 -30 13 -30 26 0 10 -7 19 -15 19 -8 0 -15 7
-15 15 0 8 -9 15 -20 15 -11 0 -20 4 -20 9 0 5 -13 12 -30 16 -16 4 -30 13
-30 21 0 9 -11 14 -30 14 -23 0 -30 4 -30 20 0 13 -7 20 -20 20 -11 0 -20 4
-20 9 0 5 -13 12 -30 16 -16 4 -30 13 -30 21 0 8 -9 14 -20 14 -11 0 -20 4
-20 9 0 5 -13 12 -30 16 -21 5 -30 13 -30 26 0 12 -7 19 -20 19 -11 0 -20 4
-20 10 0 5 -11 12 -25 16 -14 3 -25 10 -25 14 0 4 -16 11 -35 14 -21 4 -35 13
-35 21 0 10 -10 15 -30 15 -23 0 -30 4 -30 20 0 15 -7 20 -25 20 -14 0 -25 4
-25 10 0 5 -11 12 -25 16 -14 3 -25 10 -25 15 0 4 -16 11 -35 15 -20 3 -35 12
-35 20 0 9 -11 14 -30 14 -20 0 -30 5 -30 15 0 10 -11 15 -35 15 -28 0 -35 4
-35 20 0 16 -7 20 -30 20 -20 0 -30 5 -30 15 0 10 -10 15 -30 15 -20 0 -30 5
-30 15 0 10 -11 15 -35 15 -24 0 -35 5 -35 15 0 10 -10 15 -30 15 -23 0 -30 4
-30 20 0 16 -7 20 -35 20 -19 0 -35 4 -35 9 0 5 -13 12 -30 16 -16 4 -30 10
-30 15 0 4 -16 11 -36 15 -20 3 -43 13 -51 21 -8 8 -28 14 -44 14 -22 0 -29 5
-29 20 0 16 -7 20 -34 20 -19 0 -36 5 -38 11 -2 6 -25 13 -51 16 -31 4 -47 10
-47 19 0 9 -11 14 -29 14 -16 0 -31 5 -33 11 -2 6 -25 13 -51 16 -37 5 -47 9
-47 24 0 14 -7 19 -30 19 -16 0 -30 4 -30 9 0 6 -21 13 -47 17 -27 4 -51 11
-54 16 -3 5 -26 12 -50 15 -24 3 -47 10 -50 15 -3 5 -25 12 -48 15 -22 3 -41
9 -41 14 0 5 -22 11 -50 15 -30 4 -50 12 -50 19 0 16 -32 25 -87 25 -23 0 -43
5 -45 11 -2 5 -24 13 -48 16 -25 3 -48 11 -52 16 -3 6 -32 12 -65 15 -32 3
-61 9 -65 15 -3 6 -34 13 -67 15 -40 3 -61 9 -61 17 0 16 -32 25 -87 25 -23 0
-43 5 -45 12 -2 6 -31 13 -64 16 -32 3 -62 10 -66 15 -4 6 -40 13 -80 15 -40
3 -76 9 -79 14 -3 5 -47 12 -97 15 -62 4 -92 10 -92 18 0 14 -73 25 -167 25
-35 0 -63 5 -65 11 -2 6 -47 13 -108 16 -58 3 -108 10 -111 16 -4 5 -95 12
-210 15 -113 2 -207 9 -210 14 -7 10 -686 19 -876 11z m839 -1033 c2 -6 80
-13 196 -17 139 -4 192 -9 192 -18 0 -14 74 -25 167 -25 34 0 63 -5 65 -10 2
-6 44 -13 93 -17 50 -3 93 -10 96 -14 3 -5 48 -12 100 -15 52 -4 97 -12 101
-17 3 -6 34 -13 67 -15 40 -3 61 -9 61 -17 0 -15 31 -25 83 -25 20 0 37 -4 37
-9 0 -4 28 -12 62 -15 35 -4 66 -12 69 -18 3 -5 34 -12 68 -15 33 -3 61 -9 61
-14 0 -5 23 -11 50 -15 30 -4 50 -12 50 -19 0 -16 32 -25 87 -25 23 0 43 -5
45 -11 2 -6 25 -13 51 -16 31 -4 47 -10 47 -19 0 -10 14 -14 45 -14 33 0 45
-4 45 -15 0 -11 12 -15 50 -15 43 0 50 -3 50 -20 0 -16 7 -20 34 -20 19 0 36
-5 38 -11 2 -5 22 -13 46 -16 26 -3 42 -11 42 -19 0 -9 12 -14 34 -14 19 0 36
-5 38 -11 2 -5 22 -13 46 -16 26 -3 42 -11 42 -19 0 -9 12 -14 35 -14 24 0 35
-5 35 -14 0 -8 14 -17 30 -21 17 -4 30 -10 30 -15 0 -4 16 -11 36 -15 20 -3
43 -13 51 -21 8 -8 30 -14 49 -14 24 0 34 -5 34 -15 0 -10 10 -15 30 -15 23 0
30 -4 30 -20 0 -16 7 -20 35 -20 24 0 35 -5 35 -15 0 -10 10 -15 30 -15 20 0
30 -5 30 -15 0 -10 10 -15 30 -15 20 0 30 -5 30 -15 0 -10 11 -15 35 -15 28 0
35 -4 35 -20 0 -12 7 -20 16 -20 8 0 22 -7 30 -15 9 -8 24 -15 35 -15 10 0 19
-4 19 -9 0 -5 14 -12 30 -16 17 -4 30 -13 30 -21 0 -9 11 -14 35 -14 28 0 35
-4 35 -20 0 -13 7 -20 20 -20 11 0 20 -4 20 -10 0 -5 11 -12 25 -16 14 -3 25
-10 25 -15 0 -4 16 -11 35 -15 20 -3 35 -12 35 -20 0 -8 9 -14 20 -14 11 0 20
-4 20 -10 0 -5 11 -12 25 -16 16 -4 25 -13 25 -25 0 -14 7 -19 25 -19 14 0 25
-4 25 -10 0 -5 11 -12 25 -16 14 -3 25 -12 25 -20 0 -8 9 -14 20 -14 11 0 20
-4 20 -9 0 -5 14 -12 30 -16 21 -5 30 -13 30 -26 0 -11 7 -19 16 -19 8 0 22
-7 30 -15 9 -8 24 -15 35 -15 10 0 19 -7 19 -15 0 -8 7 -15 15 -15 8 0 15 -7
15 -15 0 -8 9 -15 20 -15 11 0 20 -7 20 -15 0 -8 11 -17 25 -21 14 -3 25 -12
25 -20 0 -8 9 -14 21 -14 11 0 34 -13 51 -30 16 -16 36 -30 44 -30 8 0 14 -9
14 -20 0 -13 7 -20 20 -20 11 0 20 -7 20 -15 0 -8 7 -15 16 -15 8 0 29 -13 46
-30 16 -16 38 -30 49 -30 10 0 19 -7 19 -15 0 -8 7 -15 15 -15 8 0 15 -9 15
-20 0 -11 7 -20 15 -20 8 0 15 -7 15 -15 0 -8 9 -15 20 -15 11 0 20 -4 20 -10
0 -5 6 -10 13 -10 7 0 20 -9 30 -20 9 -11 24 -20 32 -20 8 0 15 -9 15 -20 0
-11 7 -20 15 -20 8 0 15 -7 15 -15 0 -8 7 -15 15 -15 8 0 15 -7 15 -15 0 -8 9
-15 20 -15 11 0 20 -7 20 -15 0 -8 7 -15 15 -15 8 0 15 -9 15 -20 0 -11 7 -20
15 -20 8 0 15 -7 15 -15 0 -8 7 -15 15 -15 8 0 15 -7 15 -15 0 -8 9 -15 20
-15 11 0 20 -7 20 -15 0 -8 7 -15 15 -15 8 0 15 -9 15 -20 0 -11 7 -20 15 -20
8 0 15 -7 15 -15 0 -8 7 -15 15 -15 8 0 15 -7 15 -15 0 -8 9 -15 20 -15 11 0
20 -7 20 -15 0 -8 7 -15 15 -15 8 0 15 -7 15 -15 0 -8 7 -15 15 -15 8 0 15 -9
15 -20 0 -11 7 -20 15 -20 8 0 15 -7 15 -15 0 -8 9 -15 20 -15 11 0 20 -7 20
-15 0 -8 7 -15 15 -15 8 0 15 -7 15 -15 0 -8 7 -15 15 -15 8 0 15 -9 15 -20 0
-11 7 -20 15 -20 8 0 15 -7 15 -15 0 -8 6 -15 14 -15 8 0 17 -11 20 -24 3 -13
15 -26 26 -29 11 -3 20 -12 20 -21 0 -9 5 -16 10 -16 6 0 10 -9 10 -20 0 -11
7 -20 15 -20 8 0 15 -7 15 -15 0 -8 7 -15 15 -15 8 0 15 -7 15 -15 0 -8 9 -15
20 -15 13 0 20 -7 20 -19 0 -11 14 -33 30 -49 17 -17 30 -38 30 -46 0 -9 7
-16 15 -16 8 0 15 -7 15 -15 0 -8 9 -15 20 -15 13 0 20 -7 20 -19 0 -11 14
-33 30 -49 17 -17 30 -38 30 -46 0 -9 6 -16 14 -16 7 0 16 -13 20 -30 3 -18
12 -30 21 -30 8 0 15 -9 15 -20 0 -11 7 -20 15 -20 8 0 15 -7 15 -15 0 -8 7
-15 15 -15 8 0 15 -9 15 -19 0 -11 7 -26 15 -35 8 -8 15 -22 15 -30 0 -9 6
-16 14 -16 8 0 17 -11 20 -25 4 -14 13 -25 21 -25 9 0 15 -10 15 -25 0 -15 6
-25 14 -25 8 0 17 -11 20 -25 4 -14 11 -25 16 -25 6 0 10 -9 10 -20 0 -11 6
-20 14 -20 7 0 16 -13 20 -30 3 -18 12 -30 21 -30 8 0 15 -9 15 -20 0 -11 7
-20 15 -20 8 0 17 -14 21 -35 3 -19 10 -35 14 -35 4 0 11 -11 14 -25 4 -14 11
-25 16 -25 6 0 10 -9 10 -20 0 -13 7 -20 20 -20 16 0 20 -7 20 -35 0 -24 5
-35 14 -35 8 0 17 -13 21 -30 4 -16 10 -30 15 -30 5 0 11 -13 15 -30 4 -16 11
-30 16 -30 5 0 9 -9 9 -20 0 -13 7 -20 20 -20 16 0 20 -7 20 -30 0 -20 5 -30
15 -30 10 0 15 -11 15 -35 0 -24 5 -35 15 -35 10 0 15 -10 15 -30 0 -20 5 -30
15 -30 10 0 15 -11 15 -35 0 -24 5 -35 15 -35 10 0 15 -10 15 -30 0 -23 4 -30
20 -30 16 0 20 -7 20 -34 0 -19 6 -41 14 -48 7 -8 17 -29 21 -46 3 -18 10 -32
15 -32 4 0 11 -16 14 -35 4 -19 11 -35 16 -35 6 0 10 -13 10 -30 0 -23 5 -30
19 -30 15 0 19 -10 24 -47 3 -26 10 -49 16 -51 6 -2 11 -19 11 -38 0 -22 5
-34 14 -34 8 0 16 -16 19 -42 3 -24 11 -44 16 -46 6 -2 11 -19 11 -38 0 -27 4
-34 20 -34 17 0 20 -7 20 -45 0 -33 4 -45 15 -45 11 0 15 -12 15 -50 0 -36 4
-50 14 -50 9 0 15 -16 19 -47 3 -26 10 -49 16 -51 6 -2 11 -22 11 -45 0 -55 9
-87 25 -87 7 0 15 -20 19 -50 4 -27 10 -50 15 -50 5 0 11 -25 13 -56 3 -31 9
-59 15 -62 6 -4 14 -35 18 -69 4 -35 10 -63 15 -63 4 0 10 -28 12 -62 3 -35
10 -64 16 -66 7 -2 12 -22 12 -45 0 -55 9 -87 25 -87 8 0 14 -30 18 -97 4 -53
11 -99 15 -102 5 -3 12 -46 15 -95 4 -49 10 -92 15 -95 5 -3 12 -55 15 -116 3
-62 11 -111 17 -113 6 -2 10 -42 10 -100 0 -168 11 -292 27 -292 11 0 13 -79
13 -450 0 -371 -2 -450 -13 -450 -16 0 -27 -124 -27 -292 0 -61 -4 -98 -11
-100 -7 -2 -13 -47 -16 -113 -3 -61 -10 -113 -15 -116 -5 -3 -11 -46 -15 -95
-3 -49 -10 -92 -15 -95 -5 -3 -12 -47 -15 -97 -4 -63 -10 -92 -18 -92 -14 0
-25 -44 -25 -95 0 -19 -5 -35 -11 -37 -6 -2 -13 -32 -16 -66 -3 -34 -9 -62
-13 -62 -4 0 -11 -28 -14 -62 -4 -35 -12 -66 -18 -69 -6 -4 -13 -33 -16 -66
-3 -32 -9 -61 -14 -64 -6 -4 -13 -27 -15 -53 -4 -27 -11 -46 -18 -46 -16 0
-25 -32 -25 -87 0 -23 -5 -43 -11 -45 -6 -2 -13 -25 -16 -51 -4 -31 -10 -47
-19 -47 -10 0 -14 -14 -14 -45 0 -33 -4 -45 -15 -45 -11 0 -15 -12 -15 -50 0
-43 -3 -50 -20 -50 -16 0 -20 -7 -20 -30 0 -16 -4 -30 -10 -30 -5 0 -12 -23
-16 -50 -4 -32 -11 -50 -20 -50 -9 0 -14 -12 -14 -34 0 -19 -5 -36 -11 -38 -5
-2 -13 -22 -16 -46 -4 -32 -10 -42 -24 -42 -15 0 -19 -7 -19 -35 0 -19 -4 -35
-9 -35 -5 0 -12 -13 -16 -30 -4 -16 -11 -30 -15 -30 -5 0 -12 -17 -16 -37 -4
-21 -13 -44 -21 -51 -7 -7 -13 -27 -13 -43 0 -22 -5 -29 -20 -29 -16 0 -20 -7
-20 -35 0 -24 -5 -35 -15 -35 -10 0 -15 -10 -15 -30 0 -20 -5 -30 -15 -30 -10
0 -15 -11 -15 -35 0 -24 -5 -35 -15 -35 -10 0 -15 -10 -15 -30 0 -20 -5 -30
-15 -30 -10 0 -15 -11 -15 -35 0 -28 -4 -35 -20 -35 -13 0 -20 -7 -20 -20 0
-11 -4 -20 -10 -20 -5 0 -12 -11 -16 -25 -3 -14 -10 -25 -14 -25 -4 0 -11 -16
-14 -35 -4 -21 -13 -35 -21 -35 -10 0 -15 -10 -15 -30 0 -23 -4 -30 -20 -30
-15 0 -20 -7 -20 -25 0 -14 -4 -25 -10 -25 -5 0 -12 -11 -16 -25 -3 -14 -10
-25 -15 -25 -4 0 -11 -16 -15 -35 -3 -20 -12 -35 -20 -35 -8 0 -14 -9 -14 -20
0 -11 -7 -20 -15 -20 -8 0 -17 -11 -21 -25 -3 -14 -12 -25 -20 -25 -8 0 -14
-10 -14 -25 0 -14 -4 -25 -10 -25 -5 0 -12 -11 -16 -25 -3 -14 -12 -25 -20
-25 -8 0 -14 -9 -14 -20 0 -11 -7 -20 -15 -20 -9 0 -18 -12 -21 -30 -4 -16
-13 -30 -20 -30 -8 0 -14 -9 -14 -20 0 -11 -4 -20 -10 -20 -5 0 -12 -11 -16
-25 -3 -14 -12 -25 -20 -25 -8 0 -14 -9 -14 -20 0 -11 -7 -20 -15 -20 -8 0
-15 -9 -15 -20 0 -11 -7 -20 -15 -20 -8 0 -17 -11 -21 -25 -3 -14 -12 -25 -20
-25 -8 0 -14 -9 -14 -21 0 -11 -13 -34 -30 -51 -16 -16 -30 -36 -30 -44 0 -8
-9 -14 -20 -14 -13 0 -20 -7 -20 -20 0 -11 -7 -20 -15 -20 -8 0 -15 -7 -15
-16 0 -8 -13 -29 -30 -46 -16 -16 -30 -36 -30 -44 0 -8 -9 -14 -20 -14 -13 0
-20 -7 -20 -20 0 -11 -7 -20 -15 -20 -8 0 -15 -7 -15 -15 0 -8 -7 -15 -15 -15
-8 0 -15 -7 -15 -15 0 -19 -31 -55 -46 -55 -7 0 -15 -14 -19 -30 -4 -17 -13
-30 -21 -30 -8 0 -14 -7 -14 -15 0 -8 -7 -15 -15 -15 -8 0 -15 -7 -15 -15 0
-8 -7 -15 -15 -15 -8 0 -15 -9 -15 -20 0 -11 -7 -20 -15 -20 -8 0 -15 -7 -15
-15 0 -8 -9 -15 -20 -15 -11 0 -20 -7 -20 -15 0 -8 -7 -15 -15 -15 -8 0 -15
-7 -15 -15 0 -8 -7 -15 -15 -15 -8 0 -15 -9 -15 -20 0 -11 -7 -20 -15 -20 -8
0 -15 -7 -15 -15 0 -8 -9 -15 -20 -15 -11 0 -20 -7 -20 -15 0 -8 -7 -15 -15
-15 -8 0 -15 -7 -15 -15 0 -8 -7 -15 -15 -15 -8 0 -15 -7 -15 -15 0 -8 -7 -15
-15 -15 -8 0 -15 -9 -15 -20 0 -13 -7 -20 -20 -20 -11 0 -20 -7 -20 -15 0 -8
-7 -15 -15 -15 -8 0 -15 -7 -15 -15 0 -8 -7 -15 -15 -15 -8 0 -15 -7 -15 -15
0 -8 -7 -15 -15 -15 -8 0 -15 -9 -15 -20 0 -13 -7 -20 -20 -20 -11 0 -20 -7
-20 -15 0 -8 -7 -15 -15 -15 -8 0 -15 -7 -15 -15 0 -8 -7 -15 -15 -15 -8 0
-15 -6 -15 -14 0 -8 -11 -17 -24 -20 -13 -3 -26 -15 -29 -26 -3 -11 -12 -20
-21 -20 -9 0 -16 -4 -16 -10 0 -5 -9 -10 -20 -10 -11 0 -20 -7 -20 -15 0 -8
-7 -15 -15 -15 -8 0 -15 -7 -15 -15 0 -8 -7 -15 -15 -15 -8 0 -15 -6 -15 -14
0 -7 -13 -16 -30 -19 -16 -4 -30 -12 -30 -20 0 -16 -36 -47 -55 -47 -8 0 -15
-7 -15 -15 0 -8 -9 -15 -20 -15 -11 0 -20 -6 -20 -14 0 -8 -11 -17 -25 -20
-14 -4 -25 -12 -25 -19 0 -18 -37 -47 -60 -47 -11 0 -20 -6 -20 -14 0 -8 -11
-17 -25 -20 -14 -4 -25 -11 -25 -16 0 -6 -9 -10 -20 -10 -13 0 -20 -7 -20 -20
0 -11 -7 -20 -15 -20 -8 0 -15 -7 -15 -15 0 -8 -9 -15 -19 -15 -11 0 -26 -7
-35 -15 -8 -8 -22 -15 -30 -15 -9 0 -16 -6 -16 -14 0 -8 -13 -17 -30 -21 -16
-4 -30 -13 -30 -21 0 -8 -9 -14 -20 -14 -11 0 -20 -6 -20 -14 0 -8 -11 -17
-25 -20 -14 -4 -25 -11 -25 -16 0 -6 -11 -10 -25 -10 -15 0 -25 -6 -25 -14 0
-8 -11 -17 -25 -20 -14 -4 -25 -11 -25 -16 0 -6 -9 -10 -20 -10 -13 0 -20 -7
-20 -19 0 -14 -10 -21 -35 -25 -19 -4 -35 -11 -35 -15 0 -5 -11 -12 -25 -15
-14 -4 -25 -11 -25 -16 0 -6 -9 -10 -20 -10 -11 0 -20 -7 -20 -15 0 -10 -11
-15 -35 -15 -28 0 -35 -4 -35 -19 0 -13 -9 -21 -30 -26 -16 -4 -30 -11 -30
-16 0 -5 -9 -9 -19 -9 -11 0 -26 -7 -35 -15 -8 -8 -22 -15 -30 -15 -9 0 -16
-7 -16 -15 0 -10 -11 -15 -35 -15 -28 0 -35 -4 -35 -20 0 -16 -7 -20 -30 -20
-20 0 -30 -5 -30 -15 0 -10 -10 -15 -30 -15 -20 0 -30 -5 -30 -15 0 -10 -11
-15 -35 -15 -24 0 -35 -5 -35 -15 0 -10 -10 -15 -30 -15 -23 0 -30 -4 -30 -20
0 -16 -7 -20 -34 -20 -19 0 -41 -6 -49 -14 -8 -8 -31 -18 -51 -21 -20 -4 -36
-11 -36 -15 0 -5 -13 -11 -30 -15 -16 -4 -30 -11 -30 -16 0 -5 -16 -9 -35 -9
-24 0 -35 -5 -35 -15 0 -9 -9 -15 -22 -15 -39 0 -68 -12 -68 -26 0 -9 -12 -14
-35 -14 -23 0 -35 -5 -35 -14 0 -8 -16 -16 -42 -19 -24 -3 -44 -11 -46 -16 -2
-6 -19 -11 -38 -11 -24 0 -34 -5 -34 -15 0 -11 -12 -15 -50 -15 -43 0 -50 -3
-50 -20 0 -17 -7 -20 -45 -20 -31 0 -45 -4 -45 -14 0 -9 -16 -15 -46 -19 -26
-2 -49 -9 -53 -15 -3 -5 -32 -11 -64 -14 -33 -3 -62 -9 -65 -15 -4 -6 -28 -13
-54 -17 -29 -4 -48 -12 -48 -20 0 -9 -21 -15 -61 -19 -34 -3 -65 -10 -68 -15
-3 -6 -34 -14 -69 -18 -34 -3 -62 -10 -62 -14 0 -4 -26 -10 -57 -12 -31 -3
-59 -10 -61 -16 -2 -7 -22 -12 -45 -12 -55 0 -87 -9 -87 -25 0 -8 -30 -14 -97
-18 -53 -4 -99 -11 -102 -15 -3 -5 -46 -12 -95 -15 -49 -4 -92 -10 -95 -15 -3
-5 -55 -12 -115 -15 -60 -3 -112 -10 -115 -15 -3 -5 -91 -12 -196 -15 -113 -4
-191 -11 -193 -17 -5 -14 -899 -14 -904 0 -2 6 -80 13 -193 17 -105 3 -193 10
-196 15 -3 5 -55 12 -115 15 -60 3 -112 10 -115 15 -3 5 -46 11 -95 15 -49 3
-92 10 -95 15 -3 4 -49 11 -102 15 -67 4 -97 10 -97 18 0 15 -32 25 -82 25
-20 0 -38 5 -40 11 -2 6 -32 13 -66 16 -34 3 -62 9 -62 13 0 4 -28 11 -62 14
-35 4 -66 12 -69 18 -3 5 -34 12 -68 15 -40 4 -61 10 -61 19 0 8 -19 16 -47
20 -27 4 -51 11 -55 17 -3 6 -32 12 -65 15 -32 3 -61 9 -64 14 -4 6 -27 13
-53 15 -30 4 -46 10 -46 19 0 10 -14 14 -45 14 -38 0 -45 3 -45 20 0 17 -7 20
-50 20 -38 0 -50 4 -50 15 0 10 -10 15 -34 15 -19 0 -36 5 -38 11 -2 5 -22 13
-46 16 -26 3 -42 11 -42 19 0 9 -12 14 -35 14 -23 0 -35 5 -35 14 0 14 -29 26
-67 26 -14 0 -23 6 -23 15 0 10 -11 15 -35 15 -19 0 -35 4 -35 9 0 5 -13 12
-30 16 -16 4 -30 10 -30 15 0 4 -16 11 -36 15 -20 3 -43 13 -51 21 -8 8 -30
14 -49 14 -27 0 -34 4 -34 20 0 16 -7 20 -30 20 -20 0 -30 5 -30 15 0 10 -10
15 -30 15 -20 0 -30 5 -30 15 0 10 -11 15 -35 15 -24 0 -35 5 -35 15 0 10 -10
15 -30 15 -23 0 -30 4 -30 20 0 16 -7 20 -35 20 -24 0 -35 5 -35 15 0 8 -7 15
-16 15 -8 0 -22 7 -30 15 -9 8 -24 15 -35 15 -10 0 -19 4 -19 9 0 5 -13 12
-30 16 -21 5 -30 13 -30 26 0 15 -7 19 -35 19 -24 0 -35 5 -35 15 0 8 -9 15
-20 15 -11 0 -20 4 -20 10 0 5 -11 12 -25 16 -14 3 -25 10 -25 15 0 4 -16 11
-35 15 -25 4 -35 11 -35 25 0 12 -7 19 -20 19 -11 0 -20 4 -20 10 0 5 -11 12
-25 16 -14 3 -25 12 -25 20 0 8 -10 14 -25 14 -14 0 -25 4 -25 10 0 5 -11 12
-25 16 -14 3 -25 12 -25 20 0 8 -9 14 -20 14 -11 0 -20 6 -20 14 0 8 -13 17
-30 21 -16 4 -30 13 -30 21 0 8 -7 14 -16 14 -8 0 -22 7 -30 15 -9 8 -24 15
-35 15 -10 0 -19 7 -19 15 0 8 -7 15 -15 15 -8 0 -15 9 -15 20 0 13 -7 20 -20
20 -11 0 -20 4 -20 10 0 5 -11 12 -25 16 -14 3 -25 12 -25 20 0 8 -9 14 -20
14 -23 0 -60 29 -60 47 0 7 -11 15 -25 19 -14 3 -25 12 -25 20 0 8 -9 14 -20
14 -11 0 -20 7 -20 15 0 8 -7 15 -15 15 -19 0 -55 31 -55 47 0 8 -13 16 -30
20 -16 3 -30 12 -30 19 0 8 -7 14 -15 14 -8 0 -15 7 -15 15 0 8 -7 15 -15 15
-8 0 -15 7 -15 15 0 8 -9 15 -20 15 -11 0 -20 5 -20 10 0 6 -7 10 -16 10 -9 0
-18 9 -21 20 -3 11 -16 23 -29 26 -13 3 -24 12 -24 20 0 8 -7 14 -15 14 -8 0
-15 7 -15 15 0 8 -7 15 -15 15 -8 0 -15 7 -15 15 0 8 -9 15 -20 15 -13 0 -20
7 -20 20 0 11 -7 20 -15 20 -8 0 -15 7 -15 15 0 8 -7 15 -15 15 -8 0 -15 7
-15 15 0 8 -7 15 -15 15 -8 0 -15 7 -15 15 0 8 -9 15 -20 15 -13 0 -20 7 -20
20 0 11 -7 20 -15 20 -8 0 -15 7 -15 15 0 8 -7 15 -15 15 -8 0 -15 7 -15 15 0
8 -7 15 -15 15 -8 0 -15 7 -15 15 0 8 -9 15 -20 15 -11 0 -20 7 -20 15 0 8 -7
15 -15 15 -8 0 -15 9 -15 20 0 11 -7 20 -15 20 -8 0 -15 7 -15 15 0 8 -7 15
-15 15 -8 0 -15 7 -15 15 0 8 -9 15 -20 15 -11 0 -20 7 -20 15 0 8 -7 15 -15
15 -8 0 -15 9 -15 20 0 11 -7 20 -15 20 -8 0 -15 7 -15 15 0 8 -7 15 -15 15
-8 0 -15 7 -15 15 0 8 -6 15 -14 15 -8 0 -17 13 -21 30 -4 16 -12 30 -19 30
-15 0 -46 36 -46 55 0 8 -7 15 -15 15 -8 0 -15 7 -15 15 0 8 -7 15 -15 15 -8
0 -15 9 -15 20 0 13 -7 20 -20 20 -11 0 -20 6 -20 14 0 8 -13 28 -30 44 -16
17 -30 38 -30 46 0 9 -7 16 -15 16 -8 0 -15 9 -15 20 0 13 -7 20 -20 20 -11 0
-20 6 -20 14 0 8 -13 28 -30 44 -16 17 -30 40 -30 51 0 12 -6 21 -14 21 -8 0
-17 11 -20 25 -4 14 -13 25 -21 25 -8 0 -15 9 -15 20 0 11 -7 20 -15 20 -8 0
-15 9 -15 20 0 11 -6 20 -14 20 -8 0 -17 11 -20 25 -4 14 -11 25 -16 25 -6 0
-10 9 -10 20 0 11 -6 20 -14 20 -7 0 -16 14 -20 30 -3 18 -12 30 -21 30 -8 0
-15 9 -15 20 0 11 -6 20 -14 20 -8 0 -17 11 -20 25 -4 14 -11 25 -16 25 -6 0
-10 11 -10 25 0 15 -6 25 -14 25 -8 0 -17 11 -20 25 -4 14 -13 25 -21 25 -8 0
-15 9 -15 20 0 11 -6 20 -14 20 -8 0 -17 15 -20 35 -4 19 -11 35 -15 35 -5 0
-12 11 -15 25 -4 14 -11 25 -16 25 -6 0 -10 11 -10 25 0 18 -5 25 -20 25 -16
0 -20 7 -20 30 0 20 -5 30 -15 30 -8 0 -17 14 -21 35 -3 19 -10 35 -14 35 -4
0 -11 11 -14 25 -4 14 -11 25 -16 25 -6 0 -10 9 -10 20 0 13 -7 20 -20 20 -16
0 -20 7 -20 35 0 24 -5 35 -15 35 -10 0 -15 10 -15 30 0 20 -5 30 -15 30 -10
0 -15 11 -15 35 0 24 -5 35 -15 35 -10 0 -15 10 -15 30 0 20 -5 30 -15 30 -10
0 -15 11 -15 35 0 28 -4 35 -20 35 -15 0 -20 7 -20 29 0 16 -6 36 -13 43 -8 7
-17 30 -21 51 -4 20 -11 37 -16 37 -4 0 -11 14 -15 30 -4 17 -11 30 -16 30 -5
0 -9 16 -9 35 0 28 -4 35 -19 35 -14 0 -20 10 -24 42 -3 24 -11 44 -16 46 -6
2 -11 19 -11 38 0 22 -5 34 -14 34 -9 0 -16 18 -20 50 -4 28 -11 50 -16 50 -6
0 -10 14 -10 30 0 23 -4 30 -20 30 -17 0 -20 7 -20 50 0 38 -4 50 -15 50 -11
0 -15 12 -15 45 0 31 -4 45 -14 45 -9 0 -15 16 -19 46 -2 26 -9 49 -15 53 -5
3 -11 33 -14 65 -3 33 -10 62 -16 64 -7 2 -12 16 -12 30 0 41 -11 72 -25 72
-8 0 -14 21 -17 61 -2 33 -9 64 -15 67 -7 4 -15 35 -19 70 -3 34 -10 62 -14
62 -4 0 -10 28 -13 62 -3 34 -10 64 -16 66 -6 2 -11 18 -11 37 0 51 -11 95
-25 95 -8 0 -14 29 -18 92 -3 50 -10 94 -15 97 -5 3 -12 46 -15 95 -4 49 -10
92 -15 95 -5 3 -12 55 -15 116 -3 66 -9 111 -16 113 -7 2 -11 39 -11 100 0
168 -11 292 -27 292 -11 0 -13 79 -13 450 0 371 2 450 13 450 16 0 27 124 27
292 0 58 4 98 10 100 6 2 14 51 17 113 3 61 10 113 15 116 5 3 11 46 15 95 3
49 10 92 15 95 4 3 11 49 15 102 4 67 10 97 18 97 16 0 25 32 25 87 0 23 5 43
12 45 6 2 13 31 16 66 2 34 8 62 12 62 5 0 11 28 15 63 4 34 12 65 18 69 6 3
12 31 15 62 3 37 9 56 18 56 8 0 15 18 20 48 4 26 11 50 17 54 6 3 12 32 15
65 3 32 9 61 14 64 6 4 13 27 15 53 4 30 10 46 19 46 10 0 14 14 14 50 0 38 4
50 15 50 11 0 15 12 15 45 0 38 3 45 20 45 16 0 20 7 20 34 0 19 5 36 11 38 5
2 13 22 16 46 3 26 11 42 19 42 9 0 14 12 14 34 0 19 5 36 11 38 6 2 13 25 16
51 5 37 9 47 24 47 14 0 19 7 19 30 0 17 4 30 10 30 5 0 12 16 16 35 3 19 10
35 14 35 5 0 12 14 15 32 4 17 14 38 21 46 8 7 14 29 14 48 0 27 4 34 20 34
16 0 20 7 20 30 0 20 5 30 15 30 10 0 15 11 15 35 0 24 5 35 15 35 10 0 15 10
15 30 0 20 5 30 15 30 10 0 15 11 15 35 0 24 5 35 15 35 10 0 15 10 15 30 0
23 4 30 20 30 13 0 20 7 20 20 0 11 4 20 9 20 5 0 12 14 16 30 4 17 10 30 15
30 5 0 11 14 15 30 4 17 13 30 21 30 9 0 14 11 14 35 0 28 4 35 20 35 13 0 20
7 20 20 0 11 4 20 10 20 5 0 12 11 16 25 3 14 10 25 14 25 4 0 11 16 14 35 4
21 13 35 21 35 8 0 15 9 15 20 0 11 7 20 15 20 9 0 18 12 22 30 3 17 12 30 19
30 8 0 14 9 14 20 0 11 4 20 10 20 5 0 12 11 16 25 3 14 12 25 20 25 8 0 14
10 14 25 0 15 6 25 15 25 8 0 17 11 21 25 3 14 12 25 20 25 8 0 14 7 14 16 0
8 7 22 15 30 8 9 15 24 15 35 0 10 7 19 15 19 8 0 15 7 15 15 0 8 7 15 15 15
8 0 15 9 15 20 0 11 7 20 15 20 9 0 18 12 22 30 3 17 12 30 19 30 8 0 14 7 14
16 0 8 14 29 30 46 17 16 30 38 30 49 0 12 7 19 20 19 11 0 20 7 20 15 0 8 7
15 15 15 8 0 15 7 15 16 0 8 14 29 30 46 17 16 30 38 30 49 0 12 7 19 20 19
11 0 20 7 20 15 0 8 7 15 15 15 8 0 15 7 15 15 0 8 7 15 15 15 8 0 15 9 15 20
0 11 4 20 9 20 5 0 11 9 14 20 3 11 12 20 21 20 9 0 18 11 22 25 3 14 12 25
20 25 8 0 14 7 14 15 0 8 7 15 15 15 8 0 15 9 15 20 0 11 7 20 15 20 8 0 15 7
15 15 0 8 7 15 15 15 8 0 15 7 15 15 0 8 9 15 20 15 11 0 20 7 20 15 0 8 7 15
15 15 8 0 15 9 15 20 0 11 7 20 15 20 8 0 15 7 15 15 0 8 7 15 15 15 8 0 15 7
15 15 0 8 9 15 20 15 11 0 20 7 20 15 0 8 7 15 15 15 8 0 15 7 15 15 0 8 7 15
15 15 8 0 15 9 15 20 0 11 7 20 15 20 8 0 15 7 15 15 0 8 9 15 20 15 11 0 20
7 20 15 0 8 7 15 15 15 8 0 15 7 15 15 0 8 7 15 15 15 8 0 15 9 15 20 0 11 7
20 15 20 8 0 15 7 15 15 0 8 9 15 20 15 11 0 20 7 20 15 0 8 7 15 15 15 8 0
15 7 15 15 0 8 7 15 15 15 8 0 15 9 15 20 0 11 7 20 15 20 8 0 23 9 32 20 10
11 23 20 30 20 7 0 13 5 13 10 0 6 9 10 20 10 11 0 20 7 20 15 0 8 7 15 15 15
8 0 15 9 15 20 0 11 7 20 15 20 8 0 15 7 15 15 0 8 9 15 19 15 11 0 33 14 49
30 17 17 38 30 46 30 9 0 16 7 16 15 0 8 9 15 20 15 13 0 20 7 20 20 0 11 6
20 14 20 8 0 28 14 44 30 17 17 40 30 51 30 12 0 21 6 21 14 0 8 11 17 25 20
14 4 25 13 25 21 0 8 9 15 20 15 11 0 20 7 20 15 0 8 7 15 15 15 8 0 15 7 15
15 0 8 9 15 19 15 11 0 26 7 35 15 8 8 22 15 30 15 9 0 16 8 16 19 0 13 9 21
30 26 17 4 30 11 30 16 0 5 9 9 20 9 11 0 20 6 20 14 0 8 11 17 25 20 14 4 25
11 25 16 0 6 11 10 25 10 18 0 25 5 25 19 0 12 9 21 25 25 14 4 25 11 25 16 0
6 9 10 20 10 11 0 20 6 20 14 0 8 15 17 35 20 19 4 35 11 35 15 0 5 11 12 25
15 14 4 25 11 25 16 0 6 9 10 20 10 13 0 20 7 20 20 0 16 7 20 35 20 24 0 35
5 35 14 0 8 14 17 30 21 17 4 30 11 30 16 0 5 9 9 19 9 11 0 26 7 35 15 8 8
22 15 30 15 9 0 16 8 16 20 0 16 7 20 35 20 24 0 35 5 35 15 0 10 10 15 30 15
20 0 30 5 30 15 0 10 11 15 35 15 24 0 35 5 35 15 0 10 10 15 30 15 23 0 30 4
30 20 0 16 7 20 30 20 20 0 30 5 30 15 0 10 10 15 34 15 19 0 41 6 49 14 8 8
31 18 51 21 20 4 36 11 36 15 0 5 14 11 30 15 17 4 30 13 30 21 0 9 11 14 35
14 23 0 35 5 35 14 0 8 16 16 42 19 24 3 44 11 46 16 2 6 19 11 38 11 22 0 34
5 34 14 0 8 16 16 42 19 24 3 44 11 46 16 2 6 19 11 38 11 27 0 34 4 34 20 0
17 7 20 50 20 38 0 50 4 50 15 0 11 12 15 45 15 31 0 45 4 45 14 0 9 16 15 47
19 26 3 49 10 51 16 2 6 22 11 45 11 55 0 87 9 87 25 0 7 20 15 50 19 28 4 50
10 50 15 0 5 28 11 61 14 34 3 65 10 68 15 3 6 34 14 69 18 34 3 62 11 62 15
0 5 15 9 34 9 53 0 96 11 96 25 0 8 20 14 56 17 31 3 59 9 62 15 4 5 49 13
101 17 52 3 97 10 100 15 3 4 46 11 96 14 49 4 91 11 93 17 2 5 31 10 65 10
93 0 167 11 167 25 0 9 53 14 192 18 116 4 194 11 196 17 3 7 158 10 452 10
294 0 449 -3 452 -10z"/>
<path d="M27298 17923 c-49 -2 -88 -7 -88 -12 0 -4 -48 -11 -106 -14 -59 -3
-109 -9 -113 -14 -3 -6 -40 -13 -81 -17 -41 -3 -76 -11 -78 -16 -2 -6 -22 -10
-45 -10 -55 0 -87 -9 -87 -25 0 -7 -19 -14 -46 -18 -26 -2 -49 -9 -53 -14 -3
-6 -26 -13 -50 -16 -24 -3 -47 -10 -50 -15 -3 -5 -24 -12 -46 -15 -22 -4 -41
-11 -43 -17 -2 -5 -16 -10 -32 -10 -38 0 -60 -9 -60 -25 0 -8 -17 -16 -40 -20
-22 -4 -40 -11 -40 -16 0 -5 -13 -9 -30 -9 -20 0 -30 -5 -30 -15 0 -10 -11
-15 -35 -15 -24 0 -35 -5 -35 -15 0 -10 -10 -15 -30 -15 -23 0 -30 -4 -30 -20
0 -16 -7 -20 -35 -20 -24 0 -35 -5 -35 -14 0 -8 -13 -17 -30 -21 -16 -4 -30
-10 -30 -15 0 -4 -11 -11 -25 -14 -14 -4 -25 -11 -25 -16 0 -6 -11 -10 -25
-10 -18 0 -25 -5 -25 -19 0 -12 -9 -21 -25 -25 -14 -4 -25 -11 -25 -16 0 -6
-9 -10 -20 -10 -11 0 -20 -7 -20 -15 0 -8 -9 -15 -19 -15 -11 0 -26 -7 -35
-15 -8 -8 -22 -15 -30 -15 -9 0 -16 -7 -16 -15 0 -8 -7 -15 -15 -15 -8 0 -15
-9 -15 -20 0 -13 -7 -20 -19 -20 -11 0 -26 -7 -35 -15 -8 -8 -22 -15 -30 -15
-9 0 -16 -7 -16 -15 0 -8 -7 -15 -15 -15 -8 0 -15 -6 -15 -14 0 -8 -13 -17
-30 -21 -16 -4 -30 -12 -30 -19 0 -15 -36 -46 -55 -46 -8 0 -15 -7 -15 -15 0
-8 -7 -15 -15 -15 -8 0 -15 -7 -15 -15 0 -8 -9 -15 -20 -15 -13 0 -20 -7 -20
-20 0 -11 -7 -20 -15 -20 -8 0 -15 -7 -15 -15 0 -8 -7 -15 -15 -15 -8 0 -15
-7 -15 -15 0 -8 -7 -15 -15 -15 -8 0 -15 -7 -15 -15 0 -8 -9 -15 -20 -15 -13
0 -20 -7 -20 -20 0 -11 -7 -20 -15 -20 -8 0 -15 -7 -15 -15 0 -8 -7 -15 -15
-15 -8 0 -15 -7 -15 -15 0 -8 -7 -15 -15 -15 -8 0 -15 -7 -15 -15 0 -8 -9 -15
-20 -15 -11 0 -20 -7 -20 -15 0 -8 -7 -15 -15 -15 -9 0 -15 -9 -15 -21 0 -11
-20 -41 -45 -66 -25 -24 -45 -53 -45 -64 0 -12 -7 -19 -20 -19 -11 0 -20 -7
-20 -15 0 -8 -7 -15 -15 -15 -8 0 -15 -7 -15 -16 0 -8 -7 -22 -15 -30 -8 -9
-15 -24 -15 -35 0 -10 -7 -19 -15 -19 -8 0 -15 -7 -15 -15 0 -8 -9 -15 -20
-15 -12 0 -20 -7 -20 -16 0 -8 -7 -22 -15 -30 -8 -9 -15 -24 -15 -35 0 -10 -7
-19 -15 -19 -10 0 -15 -10 -15 -30 0 -20 -5 -30 -15 -30 -8 0 -15 -7 -15 -15
0 -8 -9 -15 -20 -15 -16 0 -20 -7 -20 -35 0 -24 -5 -35 -15 -35 -8 0 -15 -9
-15 -20 0 -11 -4 -20 -10 -20 -5 0 -12 -11 -16 -25 -3 -14 -12 -25 -20 -25 -9
0 -14 -12 -14 -35 0 -28 -4 -35 -20 -35 -16 0 -20 -7 -20 -30 0 -20 -5 -30
-15 -30 -9 0 -15 -9 -15 -21 0 -11 -7 -27 -15 -35 -8 -9 -15 -29 -15 -45 0
-19 -5 -29 -15 -29 -10 0 -15 -11 -15 -35 0 -24 -5 -35 -15 -35 -10 0 -15 -10
-15 -30 0 -23 -4 -30 -20 -30 -16 0 -20 -7 -20 -35 0 -19 -4 -35 -9 -35 -5 0
-13 -14 -16 -32 -4 -17 -14 -38 -21 -46 -8 -7 -14 -28 -14 -47 0 -18 -5 -35
-11 -37 -6 -2 -13 -25 -16 -50 l-5 -47 -466 -3 c-361 -2 -466 -6 -470 -15 -2
-7 -19 -13 -37 -13 -19 0 -40 -6 -47 -13 -7 -8 -26 -17 -41 -21 -15 -3 -27
-11 -27 -16 0 -6 -11 -10 -25 -10 -18 0 -25 -5 -25 -20 0 -11 -7 -20 -15 -20
-8 0 -15 -7 -15 -15 0 -8 -7 -15 -15 -15 -8 0 -15 -7 -15 -15 0 -8 -7 -15 -15
-15 -8 0 -15 -9 -15 -20 0 -11 -6 -20 -14 -20 -14 0 -26 -21 -26 -47 0 -8 -7
-21 -15 -29 -8 -9 -15 -28 -15 -44 0 -16 -6 -30 -12 -32 -18 -6 -18 -250 0
-255 6 -3 12 -20 12 -38 0 -19 6 -40 13 -47 8 -7 17 -26 21 -41 3 -15 13 -27
21 -27 9 0 15 -10 15 -25 0 -16 6 -25 15 -25 8 0 15 -7 15 -15 0 -8 7 -15 15
-15 8 0 15 -7 15 -15 0 -8 7 -15 15 -15 8 0 15 -7 15 -15 0 -9 9 -15 25 -15
15 0 25 -6 25 -15 0 -8 12 -18 27 -21 15 -4 34 -13 41 -21 7 -7 28 -13 47 -13
18 0 35 -6 37 -12 4 -10 84 -14 348 -16 l343 -3 -7 -52 c-3 -29 -6 -87 -6
-129 0 -60 -3 -78 -14 -78 -11 0 -15 -29 -21 -130 -10 -173 2 -390 21 -390 11
0 14 -18 14 -77 0 -43 3 -101 6 -130 l7 -52 -343 -3 c-264 -2 -344 -6 -348
-15 -2 -7 -19 -13 -37 -13 -19 0 -40 -6 -47 -13 -7 -8 -26 -17 -41 -21 -15 -3
-27 -11 -27 -16 0 -6 -11 -10 -25 -10 -18 0 -25 -5 -25 -20 0 -11 -7 -20 -15
-20 -8 0 -15 -7 -15 -15 0 -8 -7 -15 -15 -15 -8 0 -15 -7 -15 -15 0 -8 -7 -15
-15 -15 -8 0 -15 -9 -15 -20 0 -11 -6 -20 -14 -20 -14 0 -26 -21 -26 -47 0 -8
-7 -21 -15 -29 -8 -9 -15 -28 -15 -44 0 -16 -6 -30 -12 -32 -18 -6 -18 -250 0
-255 6 -3 12 -20 12 -38 0 -19 6 -40 13 -47 8 -7 17 -26 21 -41 3 -15 13 -27
21 -27 9 0 15 -10 15 -25 0 -16 6 -25 15 -25 8 0 15 -7 15 -15 0 -8 7 -15 15
-15 8 0 15 -7 15 -15 0 -8 7 -15 15 -15 8 0 15 -7 15 -15 0 -9 9 -15 25 -15
15 0 25 -6 25 -15 0 -8 12 -18 27 -21 15 -4 34 -13 41 -21 7 -7 28 -13 47 -13
18 0 35 -6 37 -12 4 -10 109 -14 470 -16 l466 -3 5 -46 c3 -25 9 -48 14 -52 6
-3 13 -24 16 -45 4 -22 10 -42 15 -45 5 -3 13 -21 17 -38 3 -18 11 -33 16 -33
5 0 9 -13 9 -30 0 -23 4 -30 20 -30 16 0 20 -7 20 -35 0 -24 5 -35 15 -35 10
0 15 -10 15 -30 0 -20 5 -30 15 -30 10 0 15 -10 15 -34 0 -19 7 -41 15 -50 8
-8 15 -22 15 -30 0 -9 7 -16 15 -16 10 0 15 -11 15 -35 0 -28 4 -35 20 -35 16
0 20 -7 20 -30 0 -20 5 -30 15 -30 8 0 15 -9 15 -19 0 -11 7 -26 15 -35 8 -8
15 -22 15 -30 0 -9 7 -16 15 -16 10 0 15 -10 15 -30 0 -23 4 -30 20 -30 13 0
20 -7 20 -20 0 -11 7 -20 15 -20 10 0 15 -10 15 -30 0 -19 5 -30 14 -30 8 0
17 -13 21 -30 4 -16 11 -30 16 -30 5 0 9 -9 9 -20 0 -13 7 -20 20 -20 11 0 20
-7 20 -15 0 -8 6 -15 14 -15 8 0 17 -13 21 -30 4 -16 11 -30 16 -30 5 0 9 -9
9 -20 0 -11 7 -20 15 -20 8 0 15 -7 15 -15 0 -8 9 -15 19 -15 12 0 21 -9 25
-25 4 -14 24 -43 46 -64 22 -21 40 -46 40 -55 0 -9 7 -16 15 -16 8 0 15 -7 15
-15 0 -8 9 -15 20 -15 13 0 20 -7 20 -20 0 -11 7 -20 15 -20 8 0 15 -7 15 -15
0 -8 7 -15 15 -15 8 0 15 -7 15 -15 0 -8 7 -15 15 -15 8 0 15 -7 15 -15 0 -8
9 -15 20 -15 13 0 20 -7 20 -20 0 -11 7 -20 15 -20 8 0 15 -7 15 -15 0 -8 7
-15 15 -15 8 0 15 -7 15 -15 0 -8 7 -15 15 -15 8 0 15 -7 15 -15 0 -8 9 -15
20 -15 13 0 20 -7 20 -20 0 -11 7 -20 15 -20 8 0 15 -7 15 -15 0 -8 7 -15 16
-15 9 0 27 -11 40 -25 12 -13 34 -27 48 -31 17 -4 26 -13 26 -25 0 -10 7 -19
15 -19 8 0 15 -7 15 -15 0 -8 7 -15 16 -15 8 0 22 -7 30 -15 9 -8 24 -15 35
-15 10 0 19 -7 19 -15 0 -8 7 -15 15 -15 8 0 15 -7 15 -15 0 -8 9 -15 20 -15
11 0 20 -7 20 -15 0 -9 12 -18 30 -21 17 -4 30 -13 30 -20 0 -8 9 -14 20 -14
11 0 20 -4 20 -10 0 -5 11 -12 25 -16 14 -3 25 -12 25 -20 0 -8 10 -14 25 -14
15 0 25 -6 25 -15 0 -8 11 -17 25 -21 14 -3 25 -10 25 -14 0 -5 14 -11 30 -15
17 -4 30 -13 30 -21 0 -9 11 -14 35 -14 24 0 35 -5 35 -15 0 -10 10 -15 30
-15 23 0 30 -4 30 -20 0 -16 7 -20 35 -20 24 0 35 -5 35 -15 0 -10 10 -15 30
-15 17 0 30 -4 30 -9 0 -5 16 -12 36 -16 20 -3 43 -13 51 -21 8 -8 30 -14 49
-14 22 0 34 -5 34 -14 0 -14 29 -26 67 -26 12 0 23 -5 25 -11 2 -5 24 -13 48
-16 25 -3 48 -10 51 -15 3 -5 26 -12 50 -15 24 -3 47 -11 51 -16 3 -6 32 -12
65 -15 32 -3 61 -9 64 -13 3 -5 40 -12 82 -15 50 -5 77 -11 77 -19 0 -14 66
-25 156 -25 39 0 64 -4 66 -12 6 -18 610 -18 615 0 3 8 29 12 81 12 109 0 182
10 182 25 0 9 24 14 76 17 41 2 78 8 82 14 4 6 33 13 65 16 33 3 62 9 65 15 4
6 34 12 66 15 33 3 62 10 64 16 2 7 17 12 33 12 19 0 29 5 29 15 0 10 10 15
28 15 41 0 72 11 72 25 0 7 20 15 50 19 28 4 50 11 50 16 0 4 14 11 30 15 17
4 30 11 30 16 0 5 16 9 35 9 24 0 35 5 35 15 0 10 10 15 30 15 23 0 30 4 30
20 0 16 7 20 35 20 24 0 35 5 35 15 0 10 10 15 30 15 20 0 30 5 30 15 0 10 11
15 35 15 23 0 35 5 35 14 0 8 11 17 25 20 14 4 25 13 25 21 0 8 9 15 20 15 11
0 20 7 20 15 0 8 14 17 35 21 19 3 35 10 35 15 0 5 6 9 14 9 16 0 66 45 66 60
0 5 11 10 25 10 16 0 25 6 25 15 0 8 7 15 15 15 8 0 15 7 15 16 0 8 14 29 30
46 17 16 30 40 30 54 0 14 6 24 14 24 16 0 26 21 26 55 0 13 6 25 12 27 18 6
18 250 1 255 -7 3 -13 17 -13 33 0 38 -9 60 -26 60 -8 0 -14 9 -14 19 0 11 -7
26 -15 35 -8 8 -15 24 -15 35 0 12 -6 21 -15 21 -8 0 -15 7 -15 15 0 8 -7 15
-15 15 -8 0 -15 7 -15 15 0 8 -9 15 -20 15 -11 0 -20 7 -20 15 0 8 -9 15 -20
15 -11 0 -20 7 -20 15 0 8 -12 18 -27 21 -16 4 -31 11 -34 16 -3 5 -23 11 -45
15 -21 3 -42 11 -46 17 -5 7 -52 11 -128 11 -76 0 -123 -4 -128 -11 -4 -6 -25
-14 -46 -17 -22 -4 -42 -10 -45 -15 -3 -5 -18 -12 -33 -16 -16 -3 -28 -13 -28
-21 0 -8 -9 -15 -20 -15 -11 0 -20 -7 -20 -15 0 -10 -11 -15 -35 -15 -23 0
-35 -5 -35 -14 0 -8 -11 -17 -25 -20 -14 -4 -25 -11 -25 -16 0 -6 -9 -10 -20
-10 -13 0 -20 -7 -20 -20 0 -16 -7 -20 -35 -20 -24 0 -35 -5 -35 -15 0 -10
-10 -15 -30 -15 -19 0 -30 -5 -30 -14 0 -9 -16 -15 -47 -19 -26 -3 -49 -10
-51 -16 -2 -6 -19 -11 -38 -11 -24 0 -34 -5 -34 -15 0 -9 -9 -15 -22 -15 -38
0 -68 -12 -68 -25 0 -7 -19 -14 -46 -18 -26 -2 -49 -9 -53 -14 -3 -6 -40 -13
-81 -17 -41 -3 -77 -10 -80 -15 -3 -5 -49 -12 -102 -16 -54 -4 -98 -11 -98
-16 0 -12 -417 -12 -422 0 -1 6 -50 13 -108 17 -58 4 -108 11 -111 16 -3 5
-32 12 -65 15 -32 3 -62 11 -66 16 -3 6 -34 13 -67 15 -40 3 -61 9 -61 17 0
14 -31 25 -72 25 -18 0 -28 5 -28 15 0 10 -10 15 -30 15 -16 0 -30 4 -30 9 0
5 -15 12 -34 15 -19 4 -36 11 -38 17 -2 6 -25 13 -51 16 -31 4 -47 10 -47 19
0 8 -9 14 -20 14 -11 0 -20 7 -20 15 0 8 -11 17 -25 21 -14 3 -25 10 -25 15 0
4 -16 11 -35 15 -20 3 -35 12 -35 20 0 8 -9 14 -20 14 -11 0 -20 4 -20 10 0 5
-11 12 -25 16 -16 4 -25 13 -25 25 0 15 -7 19 -35 19 -24 0 -35 5 -35 15 0 8
-7 15 -15 15 -8 0 -15 7 -15 15 0 8 -7 15 -15 15 -8 0 -15 7 -15 15 0 9 -9 15
-25 15 -14 0 -25 5 -25 10 0 15 -50 60 -66 60 -8 0 -14 7 -14 15 0 8 -9 15
-20 15 -11 0 -20 7 -20 15 0 8 -7 15 -15 15 -8 0 -15 9 -15 20 0 11 -7 20 -15
20 -8 0 -15 7 -15 15 0 8 -7 15 -15 15 -8 0 -15 7 -15 15 0 8 -7 15 -15 15 -8
0 -15 7 -15 15 0 8 -9 15 -20 15 -11 0 -20 7 -20 15 0 8 -7 15 -15 15 -8 0
-15 9 -15 20 0 11 -7 20 -15 20 -8 0 -15 7 -15 15 0 8 -6 15 -14 15 -8 0 -17
11 -20 25 -4 14 -13 25 -21 25 -9 0 -15 10 -15 25 0 16 -6 25 -15 25 -8 0 -15
7 -15 15 0 8 -6 15 -14 15 -8 0 -17 11 -20 25 -4 14 -11 25 -16 25 -6 0 -10
11 -10 25 0 18 -5 25 -20 25 -11 0 -20 6 -20 14 0 8 -13 28 -30 44 -16 17 -30
40 -30 51 0 12 -6 21 -15 21 -10 0 -15 10 -15 30 0 19 -5 30 -14 30 -8 0 -17
14 -21 30 -4 17 -13 30 -21 30 -8 0 -14 9 -14 19 0 11 -6 26 -13 33 -8 7 -17
26 -21 41 -3 15 -11 27 -16 27 -6 0 -10 11 -10 25 0 16 -6 25 -15 25 -8 0 -15
7 -15 15 0 12 119 15 915 17 650 2 918 6 923 14 4 6 25 14 46 17 22 4 42 10
45 15 3 5 18 12 34 16 15 3 27 13 27 21 0 8 9 15 20 15 11 0 20 7 20 15 0 8 9
15 20 15 11 0 20 7 20 15 0 8 7 15 15 15 8 0 15 7 15 15 0 8 7 15 15 15 9 0
15 9 15 21 0 11 7 27 15 35 8 9 15 24 15 35 0 10 6 19 14 19 17 0 26 22 26 60
0 16 6 30 13 33 17 5 17 249 -1 255 -6 2 -12 14 -12 27 0 34 -10 55 -26 55 -8
0 -14 10 -14 24 0 14 -7 31 -15 40 -8 8 -15 22 -15 30 0 9 -7 16 -15 16 -8 0
-15 7 -15 15 0 8 -7 15 -15 15 -8 0 -15 7 -15 15 0 8 -9 15 -20 15 -13 0 -20
7 -20 20 0 13 -7 20 -20 20 -11 0 -20 4 -20 10 0 5 -12 13 -27 16 -16 4 -31
11 -34 16 -3 5 -23 11 -45 15 -21 3 -42 11 -46 17 -5 8 -318 12 -1086 14
l-1079 3 -5 111 c-4 69 -10 114 -17 116 -15 5 -16 579 0 584 6 2 13 51 16 115
l6 113 1340 2 c1061 2 1341 6 1345 16 2 6 16 12 32 12 16 0 35 7 44 15 8 8 21
15 29 15 26 0 47 12 47 26 0 8 9 14 20 14 11 0 20 7 20 15 0 8 7 15 15 15 8 0
15 7 15 15 0 8 9 15 20 15 11 0 20 7 20 15 0 8 7 15 15 15 9 0 15 9 15 25 0
14 4 25 10 25 5 0 13 12 16 27 4 15 13 34 21 41 7 7 13 29 13 48 0 22 5 34 14
34 19 0 30 100 21 190 -5 50 -11 70 -21 70 -9 0 -14 11 -14 29 0 16 -7 36 -15
45 -8 8 -15 24 -15 35 0 11 -7 26 -15 35 -8 8 -15 22 -15 30 0 9 -7 16 -15 16
-8 0 -15 7 -15 15 0 8 -9 15 -20 15 -11 0 -20 7 -20 15 0 8 -7 15 -15 15 -8 0
-15 9 -15 20 0 12 -7 20 -16 20 -8 0 -22 7 -30 15 -9 8 -24 15 -35 15 -11 0
-27 7 -35 15 -9 8 -28 15 -44 15 -16 0 -30 6 -32 13 -4 9 -251 13 -1181 15
-1164 3 -1177 3 -1177 22 0 11 7 20 15 20 8 0 15 7 15 16 0 8 7 22 15 30 8 9
15 24 15 35 0 10 4 19 9 19 5 0 12 14 16 30 4 17 13 30 20 30 7 0 16 14 20 30
4 17 13 30 21 30 9 0 14 11 14 35 0 24 5 35 15 35 8 0 15 7 15 16 0 8 14 29
30 46 17 16 30 38 30 49 0 12 7 19 20 19 13 0 20 7 20 20 0 11 4 20 10 20 5 0
12 11 16 25 3 14 12 25 20 25 8 0 14 9 14 20 0 11 7 20 15 20 8 0 15 9 15 20
0 11 7 20 15 20 8 0 17 11 21 25 3 14 12 25 20 25 8 0 14 9 14 20 0 11 7 20
15 20 8 0 15 7 15 15 0 8 7 15 15 15 8 0 15 7 15 15 0 8 9 15 20 15 11 0 20 7
20 15 0 8 7 15 15 15 8 0 15 9 15 20 0 11 7 20 15 20 8 0 15 7 15 15 0 8 7 15
15 15 8 0 15 7 15 15 0 8 7 15 15 15 8 0 15 7 15 15 0 8 9 15 20 15 11 0 20 6
20 14 0 8 11 17 25 20 14 4 25 12 25 19 0 18 37 47 60 47 11 0 20 7 20 15 0 8
7 15 15 15 8 0 15 7 15 15 0 8 7 15 15 15 8 0 15 9 15 20 0 16 7 20 35 20 23
0 35 5 35 14 0 8 11 17 25 20 14 4 25 11 25 16 0 6 9 10 20 10 11 0 20 6 20
14 0 8 15 17 35 20 19 4 35 13 35 20 0 8 11 17 25 20 14 4 25 11 25 16 0 6 9
10 20 10 11 0 20 6 20 14 0 9 16 15 47 19 26 3 49 10 51 16 2 6 19 13 38 17
19 3 34 12 34 20 0 9 11 14 30 14 19 0 30 5 30 14 0 9 16 15 46 19 26 2 49 9
53 15 3 5 32 11 64 14 33 3 62 9 65 15 4 5 34 13 67 16 33 3 61 11 63 17 2 5
22 10 45 10 93 0 177 13 177 26 0 11 40 14 210 14 172 0 210 -3 210 -14 0 -10
25 -15 98 -21 53 -4 99 -11 102 -16 3 -5 39 -12 80 -15 41 -4 78 -11 81 -16 3
-5 26 -12 50 -15 24 -3 47 -10 50 -15 3 -5 25 -12 48 -15 25 -4 41 -11 41 -19
0 -9 12 -14 35 -14 23 0 35 -5 35 -14 0 -15 30 -26 73 -26 17 0 27 -5 27 -15
0 -10 10 -15 30 -15 20 0 30 -5 30 -15 0 -10 11 -15 35 -15 24 0 35 -5 35 -15
0 -8 9 -15 20 -15 11 0 20 -7 20 -15 0 -8 11 -17 25 -21 14 -3 25 -12 25 -20
0 -9 12 -14 35 -14 24 0 35 -5 35 -15 0 -8 7 -15 16 -15 8 0 22 -7 30 -15 9
-8 24 -15 35 -15 10 0 19 -6 19 -14 0 -14 29 -26 67 -26 12 0 23 -6 26 -12 3
-10 37 -13 127 -13 90 0 124 3 128 13 2 6 13 12 25 12 38 0 67 12 67 26 0 8 9
14 19 14 11 0 26 7 35 15 8 8 22 15 30 15 9 0 16 7 16 15 0 8 9 15 20 15 11 0
20 7 20 15 0 8 7 15 15 15 8 0 15 9 15 20 0 11 7 20 15 20 8 0 15 7 15 16 0 8
7 22 15 30 8 9 15 24 15 35 0 10 6 19 14 19 14 0 26 29 26 67 0 12 6 23 13 26
17 5 17 249 -1 255 -6 2 -12 13 -12 25 0 38 -12 67 -26 67 -8 0 -14 9 -14 19
0 11 -13 33 -30 49 -16 17 -30 40 -30 51 0 12 -6 21 -15 21 -8 0 -15 7 -15 15
0 9 -9 15 -21 15 -11 0 -34 14 -51 30 -16 17 -36 30 -44 30 -8 0 -14 4 -14 9
0 5 -16 12 -35 15 -26 5 -35 12 -35 26 0 13 -7 20 -20 20 -11 0 -20 4 -20 10
0 5 -11 12 -25 16 -14 3 -25 12 -25 20 0 9 -12 14 -35 14 -24 0 -35 5 -35 15
0 10 -10 15 -30 15 -23 0 -30 4 -30 20 0 16 -7 20 -35 20 -24 0 -35 5 -35 15
0 10 -10 15 -30 15 -20 0 -30 5 -30 15 0 10 -11 15 -35 15 -19 0 -35 4 -35 9
0 5 -13 12 -30 16 -16 4 -30 13 -30 20 0 9 -18 16 -47 21 -27 4 -51 11 -54 16
-4 6 -27 13 -53 15 -30 4 -46 10 -46 19 0 9 -11 14 -29 14 -16 0 -31 5 -33 12
-2 6 -31 13 -66 16 -41 3 -62 9 -62 17 0 16 -32 25 -87 25 -23 0 -43 5 -45 12
-3 8 -33 14 -79 16 -41 3 -77 9 -80 14 -4 5 -62 12 -130 15 -68 3 -127 10
-131 16 -6 10 -371 18 -530 10z"/>
<path d="M18270 21070 l0 -550 1348 0 1347 0 167 143 c372 320 770 608 1197
869 l145 88 -2102 0 -2102 0 0 -550z"/>
<path d="M18273 19353 c-10 -4 -13 -125 -13 -559 l0 -554 438 0 437 0 52 93
c129 230 362 583 567 857 59 80 110 151 113 158 4 9 -157 12 -788 11 -437 0
-800 -3 -806 -6z"/>
<path d="M5780 15400 l0 -540 5660 0 5660 0 0 540 0 540 -5660 0 -5660 0 0
-540z"/>
<path d="M5770 13130 l0 -530 5665 0 5665 0 0 530 0 530 -5665 0 -5665 0 0
-530z"/>
<path d="M8052 6323 l3 -548 538 -3 537 -2 0 550 0 550 -540 0 -540 0 2 -547z"/>
<path d="M3510 6320 l0 -540 540 0 540 0 0 540 0 540 -540 0 -540 0 0 -540z"/>
<path d="M5780 6315 l0 -545 540 0 540 0 0 545 0 545 -540 0 -540 0 0 -545z"/>
</g>
</svg>
